<svg xmlns="http://www.w3.org/2000/svg" viewBox="0 0 360 260">
  <title>adobeIconBG</title>
  <g id="Layer_2" data-name="Layer 2">
    <g id="Layer_1-2" data-name="Layer 1">
      <rect width="360" height="260" style="fill: #06ed94"/>
      <path d="M177,153.69c-6.9,0-13.81-.27-20.7.05-17.54.84-34.43-12.16-39.32-29.5-7.63-27,14.73-54.09,42.63-51.25a5.82,5.82,0,0,0,5.16-1.66c14.47-13.69,36.62-16.92,53.78-8,18.74,9.73,29,29,26.29,49.25-2.85,21.37-20.3,38.87-41.63,40.89-8.66.82-17.47.14-26.21.14Zm-4.26-77.31c2.41,1.49,4.51,2.64,6.44,4a2.47,2.47,0,0,0,3.14.14c11.13-6.08,22.23-5.81,32.48,1.6s14.38,17.61,11.78,30c-2.47,11.75-9.6,19.85-21.31,23-11.27,3-21.25.22-29.53-8.22-5.6-5.71-11.28-11.34-17-17-2.38-2.36-5.15-2.47-7-.42s-1.61,4.37.8,6.77c5.61,5.58,11.4,11,16.81,16.76,8.47,9.05,18.83,12.68,31,11.93,26.1-1.61,43.49-30.46,32.6-54.22-8.32-18.15-26.64-27-46.1-22A32.9,32.9,0,0,0,172.74,76.38Zm-3.83,68a41.44,41.44,0,0,1-3.62-3.35,14.32,14.32,0,0,0-11.3-5.28c-10.26-.37-18.26-8.29-20.31-18.69-1.78-9.06,3.1-18.9,11.71-23.57a22.51,22.51,0,0,1,26.7,3.82c4.12,4.06,8.21,8.17,12.31,12.25,2.12,2.1,4.72,2.34,6.58.63s1.82-4.46-.47-6.8c-3.66-3.75-7.39-7.43-11-11.18A33.06,33.06,0,0,0,164.09,83,31.5,31.5,0,0,0,127,101.44c-6,14.4,0,31.41,13.27,39.33C149.32,146.13,159,144.8,168.9,144.38Z" style="fill: #b51a1a"/>
      <text transform="translate(153.06 178.15)" style="font-size: 20px;font-family: SukhumvitSet-Thin, Sukhumvit Set"><tspan style="letter-spacing: -0.010986328125em">A<tspan x="11.92" y="0" style="letter-spacing: 0.000048828125em">dobe</tspan></tspan><tspan x="-33.49" y="24">C</tspan><tspan x="-22.23" y="24" style="letter-spacing: -0.010986328125em">r</tspan><tspan x="-15.21" y="24" style="letter-spacing: -0.006005859375em">e</tspan><tspan x="-5.49" y="24">ati</tspan><tspan x="15.51" y="24" style="letter-spacing: -0.00498046875em">v</tspan><tspan x="24.29" y="24">e Cloud</tspan></text>
    </g>
  </g>
</svg>
