<svg xmlns="http://www.w3.org/2000/svg" viewBox="0 0 161.82 150">
  <title>adobeIcon</title>
  <g id="Layer_2" data-name="Layer 2">
    <g id="Layer_1-2" data-name="Layer 1">
      <g>
        <g id="YCK6Sf.tif">
          <g>
            <path d="M65.17,150H58.54c0-3.58,0-7.16-.11-10.74a7.21,7.21,0,0,0-.68-2l-.86.18V150H54.12a7.9,7.9,0,0,0-.85-1.15c-.65-.62-1.91-1.12-2-1.75-.22-2.8-.09-5.62-.09-8.32l2.82-.7v-.46l-2.65-.72-.5-4.19-2.64,5a23.17,23.17,0,0,1,1.23,3.57c.5,2.9-1,6.09,1.33,8.72H43.63c.62-.7,1.73-1.36,1.78-2.1a25.56,25.56,0,0,0-.19-7.39,5.54,5.54,0,0,0-3.08-3.26,4.26,4.26,0,0,0-5.18,1.5c6.1-.6,6.77-.26,6.63,3.37l-2.39.15c-2.07.16-4.11.49-5,2.72s.6,3.59,1.91,5H32.59l.58-1.48c-6.09.38-7.75-.67-7.6-5.08h8.27c.52-3.52-.51-5.47-3-6.21a5.37,5.37,0,0,0-6.46,2.86c-1.69,3.4-.69,7.07,2.71,9.91H17.67a34.39,34.39,0,0,0,.23-4.93c-.3-3.33.13-6.06,4.07-6.8.11,0,.14-.46.27-1l-5.69.62V150H12.7l.52-1.5c-7.83.21-11-1.76-11-7.16A10.57,10.57,0,0,1,4,135.5c2.26-3.11,5.84-2.68,10-1.9-.87-.93-1.09-1.36-1.43-1.49-3.88-1.57-9.21.48-11.16,4.24C1,137.22.47,138.09,0,139V.33H161.82V150h-11a3.05,3.05,0,0,0,1.83-3.25c-.13-4.57,0-9.16-.06-13.73,0-.83-.14-1.66-.22-2.49l-1.15-.07-.43,6.53c-1,0-1.78,0-2.59,0-5.09.3-8.08,5-5.91,9.62.62,1.31,2,2.27,3,3.39h-6.63c0-3.49,0-7-.11-10.48a9.9,9.9,0,0,0-.61-2.28l-1,.17c0,2.72-.06,5.45,0,8.17.06,1.86-1,2.67-2.54,3-2.35.56-3.94-.77-4-3.52-.09-2.57,0-5.15,0-7.73l-1.07-.15a6,6,0,0,0-.56,1.65,25.2,25.2,0,0,0,.05,5.78,29.64,29.64,0,0,0,2.15,5.35h-8.84c.59-.55,1.22-1.06,1.77-1.64a7.74,7.74,0,0,0,.58-8.94,6,6,0,0,0-10.63,5.24c.52,1.94,2.17,3.58,3.31,5.35h-5c-2.28-1.5-1.89-3.83-1.88-6,0-3.84,0-7.69,0-11.53a9.7,9.7,0,0,0-.46-2l-.73,0a6,6,0,0,0-.49,1.62c0,5.13-.06,10.25,0,15.38a9.61,9.61,0,0,0,.79,2.57h-4.42l.49-1.5c-7.64.2-10.74-1.57-10.95-6.62a10.93,10.93,0,0,1,1.42-6c2.19-3.48,6-3.11,10.26-2.35-.84-.93-1-1.28-1.28-1.4a9,9,0,0,0-12.11,7c-.71,4.94,1.18,8.54,5.55,10.88h-16l.77-1.44c-6.47.19-8-.78-7.75-5.16H83.6c.48-3.53-.55-5.45-3.07-6.18a5.37,5.37,0,0,0-6.45,2.87c-1.7,3.4-.71,7,2.69,9.91H67.38l4.56-12.44-1-.43c-2.11,3.18-2.43,7.26-4.4,10.73-2.2-3.43-1.91-7.84-4.7-10.64l-.72.37Zm-7.25-26.42.87-.55c-2-5.5-3.93-11-6-16.49a1.75,1.75,0,0,0-1.41-.92A2.36,2.36,0,0,0,50,106.9c-2,5.39-3.93,10.81-5.88,16.23l.54.47a14.34,14.34,0,0,0,1.58-1.8c1.12-1.8.45-4.6,4.14-4.81,4-.23,5.58,1.48,6.36,4.9C56.83,122.51,57.49,123,57.92,123.58Zm31.6-20c-.81.73-1,.84-1,1-.07,5.7-.16,11.39-.1,17.09,0,.55.9,1.37,1.53,1.56a11.37,11.37,0,0,0,3.28.22c3.74-.05,6.25-3,6.06-7s-2.83-6.17-6.82-5.77l-2.51.26c0-1.38,0-2.48,0-3.57S89.68,105.16,89.52,103.59Zm-20.28,7c-1,0-1.78,0-2.58,0-2.91.14-5.11,1.4-6.18,4.21a7,7,0,0,0,1.6,7.37c1.53,1.35,5.92,1.91,7.82.79A2.9,2.9,0,0,0,71,120.82c.1-4.94.07-9.89,0-14.83a7.86,7.86,0,0,0-.52-1.94l-.88.1Zm10.22,12.86c3.91,0,6.17-2.31,6.15-6.38,0-3.89-2.38-6.47-5.94-6.47s-6,2.67-6.08,6.42S75.83,123.39,79.46,123.42ZM111.39,117c.59-3.31-.39-5.35-2.67-6.14a5.45,5.45,0,0,0-6.76,2.75c-1.56,3.09-.79,7.33,1.65,9,1.92,1.33,5.65,1.11,7.15-.42-6.72-.24-7.66-.83-7.63-5.21Z" style="fill: #fff"/>
            <path d="M145.25,150c-1-1.12-2.4-2.08-3-3.39-2.16-4.6.82-9.32,5.91-9.62.81,0,1.62,0,2.59,0l.43-6.53,1.15.07c.08.83.22,1.66.22,2.49,0,4.58-.07,9.16.06,13.73a3.05,3.05,0,0,1-1.83,3.25Zm5.66-6.27a9.23,9.23,0,0,0,0-1.92c-.25-1.15-.46-3.11-1-3.22-1.39-.28-3.52-.26-4.31.6a8.06,8.06,0,0,0-2,5.21,5.74,5.74,0,0,0,2.77,3.91c2.84,1.58,4.59.29,4.6-2.93C150.92,144.82,150.92,144.27,150.92,143.73Z"/>
            <path d="M0,139c.47-.87,1-1.73,1.41-2.61,1.95-3.76,7.28-5.81,11.16-4.24.34.14.56.57,1.43,1.49-4.12-.78-7.71-1.21-10,1.9a10.57,10.57,0,0,0-1.81,5.84c0,5.4,3.16,7.37,11,7.16L12.7,150H6.08c-3-1.53-4.69-4.25-6.08-7.18Z"/>
            <path d="M117.09,150c-1.14-1.77-2.79-3.41-3.31-5.35a6,6,0,0,1,10.63-5.24,7.74,7.74,0,0,1-.58,8.94c-.55.58-1.18,1.1-1.77,1.64Zm6.75-6.45c0-3.21-1.68-5.32-4.26-5.34s-4.32,2.13-4.31,5.29,1.78,5.35,4.28,5.38S123.84,146.71,123.84,143.55Z"/>
            <path d="M98.31,150c-4.37-2.34-6.26-5.94-5.55-10.88a9,9,0,0,1,12.11-7c.27.11.45.47,1.28,1.4-4.29-.76-8.07-1.13-10.26,2.35a10.93,10.93,0,0,0-1.42,6c.21,5,3.31,6.82,10.95,6.62l-.49,1.5Z"/>
            <path d="M76.77,150c-3.4-2.88-4.39-6.5-2.69-9.91a5.37,5.37,0,0,1,6.45-2.87c2.52.73,3.55,2.65,3.07,6.18H75.31c-.24,4.38,1.28,5.35,7.75,5.16L82.29,150ZM75,142.33c2.15,0,3.88,0,5.61,0a10.74,10.74,0,0,0,1.62-.28c.16-2.34-.91-3.65-3.05-3.8C76.73,138.07,75.6,139.6,75,142.33Z"/>
            <path d="M38.11,150c-1.31-1.41-2.78-2.81-1.91-5s2.92-2.56,5-2.72l2.39-.15c.14-3.63-.52-4-6.63-3.37a4.26,4.26,0,0,1,5.18-1.5,5.54,5.54,0,0,1,3.08,3.26,25.56,25.56,0,0,1,.19,7.39c-.06.74-1.16,1.4-1.78,2.1Zm5.72-3.88c.17-1.52.21-3-2.09-2.78-1.91.18-3.95.36-4,2.79-.07,2.08,1.6,2.7,3.42,2.76S44.23,148.37,43.83,146.12Z"/>
            <path d="M130.89,150a29.64,29.64,0,0,1-2.15-5.35,25.2,25.2,0,0,1-.05-5.78,6,6,0,0,1,.56-1.65l1.07.15c0,2.58-.07,5.16,0,7.73.1,2.75,1.69,4.09,4,3.52,1.58-.38,2.6-1.19,2.54-3-.09-2.72,0-5.45,0-8.17l1-.17a9.9,9.9,0,0,1,.61,2.28c.09,3.49.09,7,.11,10.48Z"/>
            <path d="M27.06,150c-3.4-2.84-4.4-6.5-2.71-9.91a5.37,5.37,0,0,1,6.46-2.86c2.51.74,3.55,2.69,3,6.21H25.57c-.14,4.41,1.51,5.46,7.6,5.08L32.59,150Zm5.31-7.84c0-2.6-.92-3.8-2.87-4-2.18-.18-3.58,1.2-3.89,4Z"/>
            <path d="M109.35,150a9.61,9.61,0,0,1-.79-2.57c-.08-5.13-.06-10.25,0-15.38a6,6,0,0,1,.49-1.62l.73,0a9.7,9.7,0,0,1,.46,2c0,3.84,0,7.69,0,11.53,0,2.22-.4,4.55,1.88,6Z"/>
            <path d="M65.17,150l-4.08-12.43.72-.37c2.79,2.8,2.5,7.21,4.7,10.64,2-3.47,2.29-7.55,4.4-10.73l1,.43L67.38,150Z"/>
            <path d="M50.81,150c-2.32-2.63-.83-5.83-1.33-8.72a23.17,23.17,0,0,0-1.23-3.57l2.64-5,.5,4.19,2.65.72v.46l-2.82.7c0,2.7-.12,5.52.09,8.32,0,.63,1.3,1.13,2,1.75a7.9,7.9,0,0,1,.85,1.15Z"/>
            <path d="M16.57,150V137.91l5.69-.62c-.14.52-.17,1-.27,1-3.94.74-4.37,3.47-4.07,6.8a34.39,34.39,0,0,1-.23,4.93Z"/>
            <path d="M56.89,150V137.43l.86-.18a7.21,7.21,0,0,1,.68,2c.09,3.58.09,7.16.11,10.74Z"/>
            <path d="M0,142.82c1.39,2.93,3,5.65,6.08,7.18H0Z" style="fill: #fff"/>
            <path d="M57.92,123.58c-.42-.56-1.09-1.07-1.23-1.7-.78-3.43-2.32-5.13-6.36-4.9-3.7.21-3,3-4.14,4.81a14.34,14.34,0,0,1-1.58,1.8l-.54-.47C46,117.71,47.94,112.29,50,106.9a2.36,2.36,0,0,1,1.45-1.28,1.75,1.75,0,0,1,1.41.92c2,5.48,4,11,6,16.49Zm-9.57-8h6.11l-2.75-7.89h-.63Z"/>
            <path d="M89.52,103.59c.17,1.57.33,2.65.38,3.74s0,2.19,0,3.57l2.51-.26c4-.39,6.62,1.85,6.82,5.77s-2.32,6.94-6.06,7a11.37,11.37,0,0,1-3.28-.22c-.63-.18-1.52-1-1.53-1.56-.06-5.7,0-11.39.1-17.09C88.47,104.43,88.71,104.32,89.52,103.59Zm.4,13.48c0,.64,0,1.29,0,1.93,0,3.16,2.23,4.42,5.06,2.88,3-1.65,3.65-7.1.8-9a6.89,6.89,0,0,0-4.62-.6c-.58.1-.89,2-1.21,3.13A6.15,6.15,0,0,0,89.91,117.07Z"/>
            <path d="M69.24,110.56l.44-6.42.88-.1a7.86,7.86,0,0,1,.52,1.94c0,4.94.07,9.89,0,14.83a2.9,2.9,0,0,1-1.15,2.11c-1.89,1.12-6.29.56-7.82-.79a7,7,0,0,1-1.6-7.37c1.07-2.81,3.27-4.06,6.18-4.21C67.46,110.53,68.26,110.56,69.24,110.56Zm.2,6.48a7.61,7.61,0,0,0,0-1.64c-.26-1.16-.52-3.21-1-3.27a7.56,7.56,0,0,0-4.63.69c-2.83,1.74-2.83,6.82,0,8.48a7.53,7.53,0,0,0,4.64.62c.48-.07.72-2.09,1-3.24A7.57,7.57,0,0,0,69.43,117Z"/>
            <path d="M79.46,123.42c-3.63,0-5.91-2.52-5.86-6.43s2.57-6.42,6.08-6.42,5.92,2.57,5.94,6.47C85.63,121.11,83.37,123.45,79.46,123.42Zm4.5-6.33c0-3.14-1.78-5.31-4.33-5.34S75.25,114,75.27,117s1.87,5.35,4.35,5.36S84,120.18,84,117.09Z"/>
            <path d="M111.39,117h-8.26c0,4.37.91,5,7.63,5.21-1.5,1.53-5.23,1.76-7.15.42-2.44-1.69-3.21-5.93-1.65-9a5.45,5.45,0,0,1,6.76-2.75C111,111.64,112,113.69,111.39,117Zm-1.3-1.32c.14-2.55-1-3.9-3.3-3.89s-3.54,1.43-3.63,3.89Z"/>
            <path d="M150.92,143.73c0,.55,0,1.1,0,1.65,0,3.23-1.76,4.52-4.6,2.93a5.74,5.74,0,0,1-2.77-3.91,8.06,8.06,0,0,1,2-5.21c.79-.86,2.92-.88,4.31-.6.54.11.75,2.08,1,3.22A9.23,9.23,0,0,1,150.92,143.73Z" style="fill: #fff"/>
            <path d="M123.84,143.55c0,3.16-1.77,5.36-4.29,5.32s-4.27-2.26-4.28-5.38,1.74-5.31,4.31-5.29S123.83,140.34,123.84,143.55Z" style="fill: #fff"/>
            <path d="M75,142.33c.62-2.73,1.75-4.26,4.17-4.09,2.14.15,3.21,1.46,3.05,3.8a10.74,10.74,0,0,1-1.62.28C78.86,142.35,77.14,142.33,75,142.33Z" style="fill: #fff"/>
            <path d="M43.83,146.12c.4,2.25-.87,2.84-2.71,2.78s-3.49-.69-3.42-2.76c.08-2.43,2.13-2.61,4-2.79C44,143.13,44,144.6,43.83,146.12Z" style="fill: #fff"/>
            <path d="M32.37,142.16H25.62c.31-2.76,1.7-4.15,3.89-4C31.45,138.37,32.35,139.56,32.37,142.16Z" style="fill: #fff"/>
            <path d="M48.35,115.57l2.73-7.88h.63l2.75,7.89Z" style="fill: #fff"/>
            <path d="M89.91,117.07a6.15,6.15,0,0,1,0-1.65c.32-1.12.64-3,1.21-3.13a6.89,6.89,0,0,1,4.62.6c2.85,1.89,2.21,7.34-.8,9-2.83,1.54-5,.29-5.06-2.88C89.91,118.36,89.91,117.71,89.91,117.07Z" style="fill: #fff"/>
            <path d="M69.43,117a7.56,7.56,0,0,1,0,1.64c-.26,1.15-.5,3.17-1,3.24a7.53,7.53,0,0,1-4.64-.62c-2.82-1.66-2.81-6.74,0-8.48a7.56,7.56,0,0,1,4.63-.69c.46.06.72,2.11,1,3.27A7.61,7.61,0,0,1,69.43,117Z" style="fill: #fff"/>
            <path d="M84,117.09c0,3.09-1.82,5.34-4.34,5.32s-4.33-2.3-4.35-5.36,1.84-5.32,4.36-5.3S83.95,114,84,117.09Z" style="fill: #fff"/>
            <path d="M110.09,115.68h-6.93c.08-2.46,1.26-3.89,3.63-3.89S110.23,113.13,110.09,115.68Z" style="fill: #fff"/>
          </g>
        </g>
        <path d="M78,95.36c-6.9,0-13.81-.27-20.7.05C39.74,96.25,22.85,83.25,18,65.91c-7.63-27,14.73-54.09,42.63-51.25A5.82,5.82,0,0,0,65.75,13C80.22-.69,102.37-3.92,119.53,5c18.74,9.73,29,29,26.29,49.25-2.85,21.37-20.3,38.87-41.63,40.89-8.66.82-17.47.14-26.21.14ZM73.72,18c2.41,1.49,4.51,2.64,6.44,4a2.47,2.47,0,0,0,3.14.14c11.13-6.08,22.23-5.81,32.48,1.6s14.38,17.61,11.78,30c-2.47,11.75-9.6,19.85-21.31,23C95,79.88,85,77,76.71,68.61c-5.6-5.71-11.28-11.34-17-17-2.38-2.36-5.15-2.47-7-.42s-1.61,4.37.8,6.77c5.61,5.58,11.4,11,16.81,16.76,8.47,9.05,18.83,12.68,31,11.93,26.1-1.61,43.49-30.46,32.6-54.22-8.32-18.15-26.64-27-46.1-22A32.9,32.9,0,0,0,73.72,18ZM69.89,86a41.44,41.44,0,0,1-3.62-3.35A14.32,14.32,0,0,0,55,77.42C44.71,77,36.71,69.13,34.66,58.73c-1.78-9.06,3.1-18.9,11.71-23.57A22.51,22.51,0,0,1,73.08,39C77.2,43,81.28,47.14,85.39,51.22c2.12,2.1,4.72,2.34,6.58.63s1.82-4.46-.47-6.8c-3.66-3.75-7.39-7.43-11-11.18a33.06,33.06,0,0,0-15.37-9.25A31.5,31.5,0,0,0,28,43.1c-6,14.4,0,31.41,13.27,39.33C50.3,87.8,60,86.47,69.89,86Z" style="fill: #b51a1a"/>
      </g>
    </g>
  </g>
</svg>
