<?xml version="1.0" encoding="UTF-8"?>
<svg width="360mm" height="260mm" version="1.1" viewBox="0 0 360 260" xmlns="http://www.w3.org/2000/svg" xmlns:cc="http://creativecommons.org/ns#" xmlns:dc="http://purl.org/dc/elements/1.1/" xmlns:rdf="http://www.w3.org/1999/02/22-rdf-syntax-ns#">
 <metadata>
  <rdf:RDF>
   <cc:Work rdf:about="">
    <dc:format>image/svg+xml</dc:format>
    <dc:type rdf:resource="http://purl.org/dc/dcmitype/StillImage"/>
    <dc:title/>
   </cc:Work>
  </rdf:RDF>
 </metadata>
 <g transform="translate(66.524 -18.899)">
  <rect x="-66.524" y="18.899" width="360" height="260" fill="#eac22e" opacity=".99032"/>
  <g>
   <path d="m161.57 157.14c-2.2695-3.1552-4.49-6.2402-6.7092-9.3252l-0.15675 0.0416v11.62h-2.4018v-19.448c3.1399 4.4523 6.1912 8.7789 9.2935 13.178 3.1307-4.3762 6.2256-8.7028 9.4198-13.169v19.412h-2.4295v-11.948l-0.15412-0.0523c-2.2721 3.2087-4.5442 6.4175-6.862 9.691"/>
   <path d="m41.854 142.78c-3.9674 0.0304-7.0948 3.2967-7.0604 7.3753 0.0324 3.9006 3.2934 7.1623 7.1199 7.1206 3.9846-0.0436 7.0842-3.2491 7.0571-7.2985-0.0265-3.9502-3.267-7.2264-7.1166-7.1973zm-0.015 16.919c-5.3697 5e-3 -9.6269-4.2459-9.6474-9.6322-0.0199-5.2586 4.3881-9.7102 9.6295-9.7248 5.2798-0.0146 9.7314 4.4119 9.7486 9.6937 0.0169 5.3082-4.3636 9.6586-9.7307 9.6632"/>
   <path d="m145.32 150.3c0.25796-3.6129-2.8172-7.237-6.3619-7.4996-4.185-0.31022-7.491 2.6147-7.784 6.8871-0.26722 3.8867 2.7927 7.3442 6.7773 7.5611 4.0329 0.21895 7.233-2.9528 7.3686-6.9486zm-7.0941 9.396c-5.3604 0.0284-9.6262-4.2102-9.6705-9.6084-0.0429-5.2493 4.359-9.7175 9.6057-9.7486 5.2765-0.0318 9.7195 4.3656 9.7711 9.6705 0.051 5.287-4.3286 9.658-9.7062 9.6864"/>
   <path d="m179.1 142.89v5.9075c1.1668 0 2.2913 0.0727 3.4032-0.0179 1.4823-0.12175 2.3244-1.1496 2.4223-2.7682 0.0906-1.483-0.59995-2.5804-2.036-2.843-1.2244-0.22358-2.4944-0.19381-3.7895-0.27848zm-0.0231 14.223c1.3064 0 2.5466 0.0661 3.7743-0.0277 0.61582-0.0476 1.2601-0.29831 1.8018-0.61251 1.5458-0.89363 1.6894-3.1948 0.26392-4.2664-1.7767-1.3362-3.8424-0.805-5.84-0.9267v5.8334zm-2.495 2.3945v-18.82c0.0654-0.043 0.1025-0.0886 0.13893-0.088 2.2708 0.0516 4.5627-0.0641 6.8077 0.211 2.3198 0.28376 3.9278 1.6523 3.9912 4.3848 0.045 1.9407-0.75207 3.4158-2.4804 4.4457 0.16743 0.10388 0.28508 0.1905 0.41407 0.254 2.2814 1.1185 3.2186 2.7384 2.9719 5.1422-0.20968 2.0399-1.7185 3.6499-4.021 4.1725-0.8427 0.19116-1.7258 0.26326-2.5929 0.28443-1.7198 0.043-3.4416 0.0134-5.2295 0.0134"/>
   <path d="m58.379 145.98v13.487h-2.4474v-19.553c4.6778 4.8181 9.2419 9.5184 13.93 14.347v-13.653h2.458v19.49c-4.6534-4.7122-9.224-9.3418-13.94-14.118"/>
   <path d="m15.326 151.25v8.1988h-2.454v-18.828h2.4421v8.0976h9.9166v-8.087h2.5506v18.836h-2.4878v-8.218h-9.9675"/>
   <path d="m80.393 157.05h10.08v2.4064h-12.578v-18.838h12.201v2.325h-9.6963v5.793h8.6459v2.4355h-8.6532v5.8777"/>
   <path d="m191.39 157.73c0.40016-0.71305 0.74543-1.3302 1.0087-1.7985 1.356 0.50338 2.6141 1.0564 3.9231 1.4301 1.0061 0.28707 2.0604 0.1442 3.0321-0.30097 2.2754-1.0405 2.5493-3.6744 0.47227-5.0621-0.90554-0.60524-1.9685-0.97169-2.9508-1.4664-0.95978-0.48487-2.0062-0.86718-2.8416-1.5167-2.8072-2.1821-2.1464-6.4717 1.188-7.96 1.9976-0.89097 4.0408-0.72429 6.0629-0.082 0.75935 0.24144 1.481 0.59929 2.3217 0.94589-0.34528 0.70246-0.6522 1.3269-0.89959 1.8303-1.3805-0.35719-2.669-0.74877-3.9833-1.0127-0.91744-0.18389-1.8375 4e-3 -2.6531 0.50535-1.4201 0.87379-1.6034 2.7609-0.28376 3.7657 0.79176 0.60259 1.735 1.0147 2.6326 1.4664 0.96308 0.48419 1.993 0.84469 2.9204 1.3844 2.0532 1.1946 2.7629 3.0745 2.3958 5.3499-0.35058 2.1683-1.7185 3.554-3.7723 4.146-3.0738 0.88635-5.883 0.0973-8.5732-1.6246"/>
   <path d="m124.49 155.87c0.36117 0.74944 0.69852 1.4486 1.0319 2.1392-2.8483 2.286-8.7379 2.4481-12.123-0.81425-3.5977-3.466-3.9079-9.7023-0.69585-13.583 3.2484-3.9244 9.0051-4.0786 12.595-1.6887-0.32081 0.74349-0.64426 1.4936-0.99286 2.3039-1.8699-1.2124-3.8305-1.8322-5.9988-1.2482-1.61 0.43393-2.8595 1.4089-3.853 2.7457-1.9136 2.5764-1.7416 6.7132 0.34792 9.2564 1.7654 2.1491 5.8665 3.3675 9.689 0.889"/>
   <path d="m92.999 140.57c0.99087 0 1.8653-0.0338 2.7338 0.0237 0.22159 0.0146 0.50337 0.27516 0.6231 0.49544 1.526 2.8052 3.0268 5.6237 4.535 8.4382 0.11775 0.21894 0.2421 0.43458 0.42135 0.7567 0.16538-0.28575 0.29104-0.49014 0.40417-0.7018 1.4896-2.7986 2.9911-5.5906 4.4529-8.4038 0.25134-0.48418 0.53908-0.65218 1.0663-0.6211 0.73089 0.0442 1.4664 0.0112 2.3343 0.0112-0.15337 0.29964-0.25466 0.51197-0.36908 0.71635-2.0466 3.6473-4.0806 7.3012-6.1549 10.933-0.381 0.66675-0.55034 1.3216-0.5338 2.0829 0.0364 1.6986 0.0112 3.3979 0.0112 5.1514h-2.5453c0-1.6695-0.0364-3.3205 0.015-4.9689 0.0277-0.90686-0.19183-1.6841-0.63963-2.4725-2.0069-3.5368-3.9654-7.1014-5.9406-10.657-0.12038-0.21696-0.23153-0.43855-0.41342-0.78382"/>
   <path d="m74.12 175.94c-2.1795-0.025-4.0382 1.8488-4.0799 4.1109-0.0436 2.3523 1.784 4.2367 4.1368 4.2664 2.1451 0.0266 3.9992-1.8387 4.0448-4.068 0.0476-2.3521-1.7899-4.2829-4.1017-4.3093zm5.5794 4.1931c0.0112 3.0373-2.503 5.5588-5.5715 5.588-3.0626 0.0284-5.5543-2.4621-5.5668-5.5621-0.0112-3.0508 2.5149-5.5986 5.5496-5.5974 3.0387 5e-4 5.5774 2.5314 5.5887 5.5715"/>
   <path d="m53.386 179.4h5.0794 0.69784v-4.6798h1.4036v10.841h-1.389v-4.732h-5.7567v4.7274h-1.4043v-10.834h1.3692v4.6778"/>
   <path d="m118.62 175.49c-0.17268 0.35064-0.33071 0.67409-0.52253 1.065-0.35853-0.12919-0.69387-0.25348-1.0312-0.37128-0.88967-0.31135-1.7866-0.46017-2.6723-5e-3 -0.91679 0.47201-1.0471 1.5469-0.25665 2.2164 0.29236 0.24804 0.64955 0.42995 0.99747 0.6012 0.59861 0.2925 1.2164 0.54365 1.8177 0.8294 1.403 0.6682 1.9612 1.7345 1.7509 3.3148-0.15468 1.1576-1.2072 2.2092-2.4944 2.4534-1.6444 0.3126-3.1366-0.0886-4.5912-1.0307 0.20306-0.37107 0.3949-0.72092 0.51527-0.94257 1.0213 0.28111 1.942 0.66145 2.8926 0.7653 1.2654 0.13824 2.1524-0.62759 2.2099-1.6544 0.0482-0.86637-0.45375-1.3684-1.1489-1.717-0.79971-0.40025-1.6464-0.71311-2.4269-1.1444-1.2442-0.68805-1.657-1.5268-1.4704-2.7577 0.18393-1.2123 1.014-2.12 2.2682-2.3812 1.4565-0.30282 2.8211-3e-3 4.1626 0.7581"/>
   <path d="m158.66 175.48c-0.18394 0.42817-0.35455 0.82299-0.52387 1.2173-2.8509-1.1105-4.4516-0.83614-5.7276 0.9578-1.1066 1.5562-1.0014 3.9382 0.27385 5.3842 0.96837 1.0973 2.9058 1.9479 5.5457 0.49992 0.18581 0.38783 0.37109 0.77285 0.55166 1.1472-1.6424 1.5528-5.1204 1.2898-7.0287-0.50284-2.0181-1.8944-2.1458-5.51-0.27582-7.8005 1.6305-1.9983 5.0377-2.4516 7.1848-0.90309"/>
   <path d="m133.05 176.06h-2.8628v9.5038h-1.4459v-9.4716h-2.8072v-1.364h7.116v1.3317"/>
   <path d="m89.028 184.19h5.506v1.364h-6.9063v-10.834h1.4003v9.47"/>
   <path d="m102.54 174.72h1.3606v10.845h-1.3606v-10.845"/>
   <path d="m142.28 185.56h-1.3666v-10.849h1.3666v10.849"/>
   <path d="m218.96 159.94c0.5834-0.22952 1.0914-0.44251 1.6093-0.6264 0.40481-0.1442 0.83012-0.23216 1.2303-0.38496 0.13556-0.0516 0.31289-0.22357 0.31751-0.34661 0.0225-0.65285 0.0482-1.3143-0.0271-1.9606-0.0728-0.6264-0.033-1.2105 0.24937-1.7707 0.22688-0.44847 0.43724-0.90951 0.7071-1.3309 1.8038-2.8092 2.6121-5.9366 2.9865-9.2075 0.0231-0.20637 0.0371-0.4187 0.096-0.61515 0.36049-1.19-0.12562-2.2013-0.76332-3.1135-0.25995-0.37042-0.805-0.59993-1.266-0.76133-4.0316-1.4096-5.8989-4.4291-6.3692-8.4931-0.0424-0.3724-0.17006-0.62573-0.49411-0.77523-0.95912-0.44186-1.9526-0.81953-2.8773-1.3236-1.7939-0.97765-3.5699-1.9916-5.3155-3.0533-1.4288-0.86916-2.8787-1.7112-4.4913-2.1405-1.0404-0.27716-2.1563-0.32543-3.2418-0.36247-1.2621-0.043-2.5307 0.10187-3.7928 0.0503-1.8666-0.0747-3.5805-0.7673-5.2784-1.4856-1.5492-0.65551-3.0824-1.3553-4.6646-1.9189-1.3328-0.47426-2.7239-0.78913-4.0931-1.1556-0.49148-0.13162-0.95714-0.0999-1.2918 0.38033-0.0965 0.13762-0.25466 0.23416-0.39158 0.33998-0.95647 0.73489-1.522 0.71174-2.4547-0.0523-1.0583-0.86651-2.1015-1.7568-3.2107-2.5532-0.53448-0.38431-1.192-0.61913-1.8217-0.846-0.69783-0.25201-1.3388-0.54174-1.8098-1.1529-0.17325-0.22489-0.44648-0.38165-0.69387-0.53775-0.465-0.2937-0.66344-0.74216-0.75936-1.2488-0.094-0.49015 0.0749-0.7071 0.57482-0.66806 0.81161 0.0641 1.6179 0.18131 2.4282 0.26723 0.9459 0.10125 1.8984 0.15618 2.8383 0.29632 1.5908 0.23813 3.1737 0.52785 4.7592 0.79508 3.3304 0.56092 6.6602 1.1298 9.9927 1.6794 2.4798 0.40944 4.959 0.8222 7.4467 1.1748 0.86583 0.12237 1.7575 0.11775 2.6346 0.086 1.3977-0.051 2.7715-0.0199 4.1778 0.10912 2.0895 0.1905 3.9926 0.99086 6.0146 1.3699 2.0161 0.37835 3.98 1.0689 5.9406 1.7039 2.2847 0.74083 4.4066 1.858 6.4935 3.0334 0.46434 0.26193 0.87578 0.28972 1.4122 0.19316 1.3276-0.23813 2.6756-0.37636 4.021-0.48815 1.225-0.10263 2.4586-0.16931 3.687-0.1575 1.4016 0.015 2.8019 0.13294 4.2029 0.20835 0.16931 9e-3 0.33934 0.0285 0.46369 0.039-0.82088-0.69918-1.6834-1.3785-2.4798-2.1279-1.4149-1.3315-2.7801-2.714-4.1837-4.058-0.44913-0.43062-0.9525-0.80367-1.4294-1.2058-0.29964-0.25333-0.6264-0.28444-0.96836-0.1105-0.47758 0.24341-0.93729 0.52586-1.4261 0.74481-1.0868 0.48616-1.6173 0.27649-1.9764-0.85395-0.28311-0.889-0.47163-1.8084-0.67999-2.7193-0.26129-1.1404-0.59267-2.2509-1.2766-3.218-0.66806-0.94324-1.3666-1.864-2.0221-2.8165-0.11637-0.16931-0.19513-0.54768-0.10125-0.64293 0.23548-0.23947 0.57349-0.49609 0.88373-0.5133 0.32476-0.0188 0.70377 0.17718 0.99151 0.37703 1.1648 0.80963 2.3085 1.6497 3.4495 2.493 0.66873 0.4941 1.3778 0.95381 1.9639 1.5359 1.5094 1.5002 3.3463 2.454 5.2546 3.298 2.6796 1.1853 5.3691 2.3468 8.0526 3.5229 0.25334 0.11113 0.49609 0.24804 0.74149 0.37835 1.8818 0.9988 3.7829 1.9632 5.6383 3.0083 1.8415 1.0372 2.8132 2.6386 2.7431 4.7863-0.0376 1.1331-0.44054 2.1054-1.3315 2.8813-1.3507 1.1768-2.9726 1.8369-4.5852 2.5122-3.5798 1.4982-7.3071 2.3846-11.184 2.6531-0.64226 0.0443-1.2766 0.211-1.9903 0.33404 0.135 0.26392 0.18188 0.41671 0.27583 0.53048 1.3719 1.6523 2.0413 3.6936 3.0751 5.5324 0.15281 0.27186 0.28242 0.57018 0.48815 0.79574 1.4268 1.5577 1.8111 3.5137 2.1068 5.4954 0.26655 1.7926-0.0416 3.5573-0.31288 5.3261-0.10912 0.71173-0.17719 1.4578-0.0926 2.1676 0.37173 3.1274-1.1099 5.2917-3.6016 6.8501-1.6669 1.0438-2.8688 2.4276-3.7412 4.1447-0.0835 0.16339-0.12638 0.3982-0.0793 0.56951 0.84204 3.1122 1.1225 6.3063 1.4314 9.4978 0.11637 1.2059 0.29501 2.4058 0.47625 3.6044 0.29038 1.9141 0.0442 3.7975-0.22753 5.6904-0.40084 2.7959-0.74151 5.5999-1.1126 8.4005-0.10263 0.77252-0.2163 1.5446-0.33338 2.3151-0.15019 0.99087-0.73025 1.5934-1.7039 1.79-0.55894 0.11239-1.1311 0.15478-1.6947 0.246-0.74677 0.12091-1.4903 0.26325-2.2364 0.38834-0.45905 0.076-0.91943 0.17781-1.3805 0.18322-0.21363 2e-3 -0.42993-0.19797-0.64425-0.30619 0.129-0.15894 0.24935-0.32762 0.39223-0.47313 0.0555-0.056 0.162-0.0607 0.24475-0.0891-0.0443-0.0669-0.0893-0.13309-0.13425-0.19844-0.37109 0.11496-0.73885 0.23872-1.1126 0.34389-0.6641 0.18705-1.3276 0.37491-1.9976 0.53512-0.15675 0.0377-0.424 0.0276-0.49477-0.0682-0.38166-0.51191-0.87314-0.25195-1.3256-0.23879-0.73552 0.0217-1.0312-0.33278-0.79308-1.0307 0.0503-0.14545 0.297-0.28423 0.47361-0.31803 1.2693-0.24084 2.4778-0.70901 3.7954-0.80565 1.2151-0.09 2.4044-0.48809 3.6136-0.71027 1.231-0.22635 1.6001-0.56642 1.6199-1.8384 0.0455-3.0415-0.19645-6.0676-0.71702-9.062-0.36909-2.1185-0.41937-4.2321-0.2745-6.3679 0.09-1.3314 0.13425-2.6722-0.34264-3.9615-0.22425-0.60588-0.2421-0.59113-0.77655-0.26973-0.25268 0.15218-0.58209 0.19512-0.8837 0.23826-0.26989 0.039-0.4207 0.0959-0.46833 0.41856-0.086 0.58856-0.48352 0.81883-1.0173 0.56561-0.95516-0.45322-1.862-0.45965-2.8509-0.0484-1.0418 0.43332-2.1206 0.2124-3.1518-0.1602-0.58408-0.21028-1.229-0.36559-1.7092-0.72806-1.4612-1.1041-2.1702-2.6921-2.6419-4.4207-0.74479-2.7278 0.52983-5.1646 2.5836-6.553 0.28245-0.19116 0.56688-0.37967 0.91746-0.6145-0.24409-0.26722-0.43128-0.4855-0.63236-0.69056-0.60657-0.61846-0.63235-1.3765 0.0169-1.9579 0.37969-0.33933 0.83146-0.63964 1.3031-0.82946 1.1886-0.47824 2.364 0.33535 2.4097 1.6192 0.0113 0.30691 1e-3 0.61515 1e-3 1.0372"/>
   <path d="m-1.809 152.73c0.89364-0.84534 1.782-1.6953 2.6849-2.5301 0.17925-0.16601 0.22688-0.31419 0.17006-0.55165-0.55365-2.3144-1.1-4.6315-1.6358-6.95-0.05625-0.24341-0.17194-0.34859-0.40151-0.41671-2.3588-0.69983-4.7162-1.4063-7.0713-2.12-0.21186-0.0641-0.35189-0.0251-0.50951 0.12503-1.7549 1.6656-3.5132 3.3271-5.279 4.9814-0.18731 0.1753-0.22891 0.33536-0.16856 0.58142 0.56606 2.3217 1.1226 4.6468 1.6743 6.9724 0.05813 0.24474 0.18262 0.38231 0.42248 0.45442 2.3091 0.69057 4.6175 1.3844 6.9239 2.0856 0.18806 0.0569 0.31598 0.0284 0.45854-0.10788m-2.2845-26.288c-0.9082 0.85859-1.8148 1.7191-2.727 2.5737-0.12956 0.12175-0.18712 0.23614-0.14288 0.42201 0.57005 2.3938 1.1341 4.789 1.6935 7.1854 0.0425 0.18189 0.13481 0.26789 0.30956 0.31947 2.3295 0.69322 4.6582 1.3904 6.9845 2.0929 0.18918 0.0575 0.31485 0.0219 0.45772-0.11175 1.817-1.7019 3.6387-3.3999 5.4637-5.0932 0.14494-0.13428 0.18263-0.2593 0.13556-0.45045-0.58871-2.3793-1.1728-4.7592-1.7509-7.1404-0.049-0.20306-0.14888-0.30096-0.34594-0.36183-2.3038-0.70841-4.6064-1.4215-6.9056-2.1431-0.22224-0.0701-0.36776-0.0371-0.53644 0.12506m0.7878 37.724c0.17138-0.16007 0.20505-0.30625 0.15281-0.53049-0.54836-2.368-1.0888-4.738-1.6217-7.1094-0.04625-0.20505-0.13688-0.3003-0.33821-0.36049-2.2908-0.6813-4.5808-1.3672-6.8655-2.0697-0.29046-0.0892-0.47672-0.0496-0.69532 0.15743-1.7554 1.6649-3.5208 3.3199-5.2883 4.9722-0.14081 0.13096-0.1545 0.254-0.11488 0.42663 0.55635 2.4183 1.1103 4.8366 1.6532 7.2575 0.05213 0.2335 0.16294 0.32728 0.38266 0.39218 2.3032 0.67542 4.6041 1.3601 6.9026 2.0505 0.21132 0.0635 0.3501 0.0318 0.50899-0.1205 0.88708-0.85184 1.7842-1.6932 2.6779-2.5379m-9.8118-10.583c0.87928-0.8308 1.7619-1.6583 2.6324-2.4983 0.09125-0.088 0.17962-0.26658 0.15338-0.37638-0.5736-2.4448-1.1609-4.8862-1.7585-7.3256-0.02625-0.1085-0.15581-0.23945-0.26485-0.27383-2.3867-0.74745-4.7767-1.485-7.1696-2.2132-0.108-0.0331-0.29019 2e-3 -0.37002 0.078-1.8335 1.729-3.6592 3.4667-5.478 5.2116-0.08112 0.078-0.135 0.254-0.10988 0.36315 0.54135 2.3594 1.0982 4.7149 1.6444 7.073 0.042 0.18258 0.12844 0.2679 0.30408 0.32015 2.4348 0.72893 4.8685 1.4625 7.2999 2.202 0.20955 0.0641 0.35269 0.0311 0.51102-0.12175m37.646-25.399c0.18852-0.174 0.22689-0.33533 0.16932-0.58207-0.54835-2.3786-1.0868-4.7592-1.6192-7.1411-0.0476-0.21299-0.13425-0.32411-0.34859-0.38763-2.3296-0.69386-4.6573-1.3943-6.9824-2.1041-0.23615-0.072-0.38895-0.0285-0.56224 0.13818-1.7707 1.7079-3.5468 3.4098-5.3274 5.1071-0.1575 0.15018-0.20371 0.28707-0.15019 0.5027 0.59137 2.3786 1.1774 4.7586 1.7522 7.1411 0.0576 0.24077 0.17062 0.34529 0.40151 0.41209 2.3045 0.67072 4.6077 1.3481 6.9076 2.036 0.21233 0.0635 0.34528 0.039 0.50535-0.11437 0.8718-0.8394 1.7542-1.6662 2.6339-2.497m-19.428-20.638c-0.9009 0.85129-1.7995 1.7059-2.7054 2.5526-0.14062 0.13106-0.18998 0.24937-0.13912 0.44647 0.60874 2.3733 1.2112 4.7486 1.8052 7.1259 0.05625 0.22621 0.162 0.33204 0.381 0.39953 2.3522 0.7223 4.7023 1.4512 7.0498 2.1881 0.21235 0.0675 0.33471-4e-3 0.4756-0.13894 1.7522-1.6828 3.5057-3.3642 5.2665-5.0377 0.17587-0.16743 0.22025-0.31748 0.16537-0.55496-0.54371-2.368-1.0788-4.7387-1.6047-7.1107-0.0529-0.23945-0.15806-0.3486-0.39356-0.41672-2.3641-0.67998-4.7255-1.3712-7.0849-2.069-0.22159-0.0654-0.36841-0.0397-0.53709 0.12375m11.013 48.326c0.17062-0.15809 0.21828-0.29833 0.16668-0.52454-0.53445-2.3502-1.063-4.7023-1.5802-7.0558-0.0555-0.254-0.17269-0.36446-0.41474-0.43656-2.3693-0.70314-4.7347-1.4162-7.0981-2.1352-0.21431-0.0649-0.35188-0.0205-0.50865 0.12699-1.7774 1.6708-3.5586 3.3377-5.3459 4.9973-0.17269 0.16006-0.20902 0.30558-0.1575 0.5285 0.55099 2.3879 1.094 4.7777 1.6325 7.1682 0.04288 0.19116 0.12562 0.28971 0.31684 0.3466 2.37 0.70049 4.7374 1.4056 7.1034 2.1173 0.19514 0.0583 0.33206 0.0442 0.48619-0.10388 0.89428-0.85857 1.7985-1.7066 2.6994-2.5585m-2.409 3.3648c-0.19579 0.18652-0.38893 0.23613-0.65681 0.15543-2.4811-0.75008-4.9669-1.487-7.4487-2.2377-0.22159-0.0675-0.35256-2e-3 -0.5047 0.14223-1.7933 1.7138-3.5958 3.4185-5.3846 5.137-0.31982 0.30744-0.62575 0.3855-1.0616 0.25241-2.3348-0.7124-4.6744-1.4108-7.0223-2.0795-0.5457-0.15551-0.80984-0.42942-0.93074-0.98953-0.52554-2.4355-1.0978-4.8611-1.6435-7.2919-0.05038-0.22555-0.14531-0.33734-0.37181-0.40481-2.4368-0.72364-4.869-1.4645-7.3063-2.1874-0.40131-0.11837-0.6129-0.33072-0.70849-0.75406-0.54908-2.4309-1.1183-4.8571-1.7002-7.28-0.09562-0.39688-0.0012-0.67007 0.28378-0.94125 1.9047-1.8012 3.8034-3.6096 5.6981-5.4213 0.2475-0.23681 0.4943-0.28906 0.82291-0.18652 2.4363 0.76134 4.8775 1.5068 7.3141 2.2668 0.22165 0.0695 0.36505 0.0377 0.53511-0.123 1.7988-1.7079 3.6047-3.4092 5.4146-5.1051 0.16181-0.15147 0.19684-0.29103 0.14625-0.50337-0.56588-2.3647-1.1142-4.7334-1.6885-7.0955-0.09338-0.38365-0.01125-0.63169 0.27385-0.90224 1.8164-1.7184 3.6124-3.4588 5.4242-5.1832 0.17888-0.17062 0.21729-0.32146 0.15769-0.55496-0.6364-2.4818-1.2581-4.9676-1.898-7.4487-0.082-0.31616-0.01925-0.53047 0.21596-0.75009 1.9268-1.7932 3.8477-3.5924 5.7646-5.3955 0.26988-0.25401 0.54769-0.32411 0.90951-0.21763 2.544 0.75273 5.0912 1.4956 7.6398 2.2338 0.30758 0.0886 0.46302 0.2573 0.53314 0.57481 0.549 2.4818 1.1165 4.9596 1.6662 7.4421 0.0503 0.22688 0.18713 0.27783 0.36777 0.33205 2.3865 0.71636 4.7698 1.444 7.1603 2.1471 0.42929 0.12638 0.64889 0.33934 0.7468 0.78646 0.56224 2.5618 1.1496 5.1184 1.7356 7.6749 0.0629 0.27584 4e-3 0.47429-0.20571 0.67272-1.9176 1.817-3.8298 3.6407-5.7368 5.469-0.23284 0.22291-0.46434 0.26523-0.76928 0.17461-2.4467-0.72628-4.8974-1.4407-7.3448-2.1643-0.19976-0.0589-0.33667-0.0173-0.48682 0.12375-1.7721 1.6622-3.5481 3.3218-5.3307 4.9728-0.18188 0.16801-0.21761 0.32014-0.162 0.55364 0.5543 2.3257 1.102 4.6527 1.6404 6.9824 0.055 0.23746 0.16275 0.3519 0.39622 0.4207 2.3786 0.70643 4.7526 1.432 7.1332 2.1319 0.47096 0.1389 0.71306 0.38629 0.81889 0.87908 0.52586 2.4461 1.0762 4.8862 1.6391 7.3237 0.0952 0.41473 0.0212 0.69453-0.29962 0.9849-0.95648 0.86651-1.8832 1.7661-2.8211 2.6531"/>
   <path d="m31.957 131.93c0.85792-0.81096 1.7132-1.6245 2.5757-2.4302 0.1395-0.13031 0.19579-0.2487 0.14756-0.44581-0.55297-2.2767-1.098-4.5555-1.6398-6.8342-0.0404-0.17062-0.12175-0.25532-0.28972-0.3036-2.2225-0.6456-4.4437-1.2945-6.6628-1.95-0.19118-0.0569-0.31422-0.015-0.45575 0.11775-1.6755 1.5802-3.3543 3.1578-5.041 4.7268-0.18394 0.17138-0.23284 0.32411-0.174 0.5715 0.52321 2.2146 1.0372 4.4324 1.5418 6.6516 0.0515 0.22755 0.1575 0.33008 0.3744 0.39689 2.1854 0.66874 4.3689 1.3447 6.5498 2.0274 0.20175 0.0635 0.33206 0.0251 0.48088-0.11637m0.3228 0.71239c-0.24275 0.23283-0.48684 0.27781-0.80499 0.1786-2.3733-0.74283-4.7493-1.4764-7.1259-2.2066-0.23879-0.0728-0.36578-0.21234-0.4207-0.44914-0.56818-2.46-1.1384-4.9199-1.7132-7.3786-0.0694-0.29698 0.0304-0.51461 0.2421-0.71239 1.5418-1.4459 3.0811-2.8952 4.6223-4.3425 0.26325-0.24806 0.53314-0.48949 0.79176-0.74281 0.24011-0.23549 0.49346-0.29834 0.83014-0.19845 2.3283 0.6932 4.66 1.3758 6.9942 2.0472 0.35852 0.10312 0.53842 0.30229 0.62177 0.6555 0.54174 2.29 1.0669 4.5852 1.6622 6.8613 0.15881 0.60654 0.0265 0.96308-0.41869 1.3533-0.85857 0.75339-1.6689 1.561-2.4996 2.3455"/>
   <path d="m-9.6773 128c0.82111-0.80234 1.6376-1.61 2.4673-2.4031 0.17025-0.16275 0.20254-0.30957 0.14719-0.53247-0.57308-2.3237-1.1382-4.6494-1.6965-6.9771-0.04512-0.18919-0.13388-0.26657-0.31419-0.3142-2.2102-0.58936-4.4192-1.184-6.6257-1.7853-0.19558-0.0536-0.31961-0.0112-0.46044 0.12375-1.7268 1.6563-3.4574 3.3086-5.1919 4.9556-0.1395 0.13294-0.16462 0.25335-0.11812 0.43327 0.58725 2.2807 1.1707 4.5621 1.7453 6.8454 0.05213 0.20704 0.14906 0.29765 0.35216 0.3519 2.2466 0.60259 4.491 1.2131 6.7337 1.8289 0.19124 0.0524 0.32095 0.0259 0.46278-0.11438m-7.0804-12.311c0.91775-0.89629 1.84-1.7886 2.7505-2.6928 0.23389-0.23284 0.47465-0.28376 0.78679-0.1991 2.3285 0.63301 4.6579 1.2647 6.9921 1.8759 0.39555 0.10388 0.58004 0.28243 0.67515 0.69718 0.48578 2.1167 1.0124 4.2241 1.5247 6.3348 0.0865 0.35653 0.168 0.71438 0.25989 1.0689 0.075 0.28905 0.01125 0.52322-0.20769 0.73487-1.7965 1.7363-3.5903 3.4766-5.3808 5.2196-0.21055 0.20505-0.43538 0.25335-0.71339 0.17719-2.412-0.65749-4.8243-1.3143-7.2388-1.9625-0.31966-0.086-0.49688-0.28112-0.5744-0.58408-0.63329-2.4785-1.2648-4.9576-1.8983-7.4354-0.0575-0.22556-0.015-0.40945 0.15788-0.57746"/>
   <path d="m3.7056 178.8c0.85594-0.80897 1.7092-1.6198 2.5698-2.4236 0.13894-0.12945 0.19448-0.2485 0.14681-0.4449-0.55163-2.2717-1.0954-4.5437-1.6358-6.8176-0.04037-0.16954-0.12175-0.254-0.28907-0.30308-2.2166-0.64287-4.4324-1.2904-6.6463-1.9447-0.1905-0.0562-0.31354-0.0151-0.45442 0.11775-1.6715 1.5763-3.346 3.1493-5.0283 4.7149-0.18394 0.17079-0.23231 0.32345-0.17381 0.57024 0.52215 2.2092 1.0345 4.4212 1.5382 6.635 0.0515 0.22687 0.15675 0.32947 0.37308 0.39641 2.1804 0.66661 4.3586 1.3407 6.5342 2.0221 0.20108 0.0627 0.33139 0.0242 0.47889-0.1165m0.32279 0.71107c-0.24209 0.2323-0.48618 0.27728-0.80366 0.17726-2.3667-0.74031-4.7367-1.4718-7.1084-2.2007-0.23719-0.0729-0.36451-0.2116-0.4191-0.44854-0.56686-2.4534-1.1353-4.9067-1.7089-7.3592-0.069-0.29712 0.03063-0.51389 0.24135-0.7118 1.5384-1.4413 3.0737-2.8872 4.6109-4.3312 0.2626-0.24739 0.53246-0.48815 0.78978-0.74084 0.24011-0.23415 0.49212-0.29765 0.82815-0.19778 2.3224 0.69123 4.6481 1.3727 6.9777 2.0419 0.35654 0.10337 0.53646 0.30228 0.6198 0.65497 0.54041 2.2838 1.0636 4.5734 1.6576 6.8427 0.15882 0.60518 0.0265 0.96124-0.41737 1.3506-0.85659 0.75167-1.6656 1.5573-2.4937 2.3404"/>
   <path d="m73.643 135.39c0.85529-0.80896 1.7086-1.6199 2.5691-2.4243 0.1395-0.12956 0.19513-0.24804 0.14682-0.44449-0.55099-2.2714-1.0954-4.5442-1.6358-6.8176-0.0404-0.16931-0.12113-0.254-0.2884-0.30228-2.2172-0.64359-4.4324-1.2912-6.647-1.9454-0.1905-0.0563-0.31286-0.015-0.45376 0.11775-1.6715 1.5763-3.3463 3.1499-5.0291 4.7149-0.18318 0.17063-0.23216 0.32346-0.17325 0.56951 0.52189 2.2099 1.0345 4.4218 1.5379 6.6358 0.0515 0.22689 0.15675 0.32942 0.37307 0.39555 2.1808 0.66742 4.3584 1.3421 6.5346 2.0228 0.20041 0.0629 0.33138 0.0251 0.47888-0.11637m0.32213 0.71041c-0.24208 0.23283-0.48616 0.27781-0.803 0.17859-2.3674-0.74084-4.7374-1.4724-7.108-2.2007-0.23812-0.0734-0.36511-0.21299-0.41936-0.44846-0.56753-2.454-1.1357-4.9074-1.7092-7.36-0.0694-0.297 0.0304-0.51329 0.24145-0.71106 1.5379-1.4426 3.0738-2.8879 4.6104-4.3312 0.26325-0.24739 0.53246-0.48816 0.79044-0.74084 0.23943-0.23482 0.49211-0.29832 0.82747-0.19845 2.323 0.6919 4.6487 1.3725 6.9777 2.0426 0.35718 0.1025 0.53645 0.30164 0.6198 0.65351 0.54041 2.2847 1.0636 4.5733 1.6583 6.8441 0.15806 0.60524 0.0264 0.96044-0.41803 1.35-0.85593 0.75141-1.6649 1.5571-2.493 2.3402"/>
   <path d="m112.13 119.45c0.1395-0.13163 0.19249-0.2527 0.14494-0.44715-0.58471-2.4077-1.1635-4.8174-1.7363-7.2284-0.0463-0.19249-0.13819-0.28376-0.3261-0.33866-2.3416-0.67733-4.6818-1.3606-7.0207-2.0479-0.19381-0.0576-0.33007-0.0364-0.48485 0.1105-1.778 1.6808-3.5613 3.3562-5.3505 5.0251-0.18582 0.17325-0.2335 0.33074-0.17457 0.57878 0.55363 2.3429 1.0987 4.6878 1.6338 7.0353 0.0567 0.25202 0.174 0.36447 0.4154 0.43789 2.3025 0.70179 4.6024 1.4129 6.9003 2.1299 0.20704 0.0649 0.34991 0.0456 0.51131-0.10988 0.90024-0.86518 1.8104-1.7198 2.7173-2.5784m0.56489 0.54306c-0.98027 0.92803-1.9645 1.8521-2.9382 2.7867-0.24737 0.23679-0.49874 0.2897-0.82484 0.18785-2.5208-0.78581-5.0436-1.563-7.5677-2.3376-0.23947-0.0735-0.37439-0.21365-0.42994-0.45309-0.60525-2.6114-1.2118-5.2222-1.8223-7.8323-0.0706-0.30164 0.0277-0.52785 0.24276-0.7296 1.645-1.5452 3.2874-3.0916 4.9312-4.6375 0.2864-0.26921 0.57414-0.53646 0.86055-0.80567 0.2249-0.21167 0.46831-0.26723 0.77589-0.17663 2.503 0.73953 5.0079 1.4724 7.5162 2.1947 0.36645 0.10575 0.50999 0.34395 0.59069 0.68261 0.5748 2.411 1.1271 4.8286 1.7562 7.2258 0.17062 0.64955 0.041 1.0365-0.44451 1.4592"/>
   <path d="m113.25 110.36c-0.15337 0.14287-0.19115 0.27648-0.14344 0.4769 0.56423 2.3621 1.1212 4.7254 1.6761 7.0888 0.0424 0.17925 0.10388 0.30163 0.3036 0.36048 2.3376 0.6919 4.6739 1.3904 7.0088 2.0935 0.17793 0.0536 0.29698 0.0199 0.43061-0.10513 1.8223-1.7079 3.6486-3.4125 5.4788-5.1124 0.13556-0.12638 0.17194-0.2454 0.12769-0.42465-0.59134-2.3859-1.178-4.7731-1.7595-7.1616-0.047-0.1905-0.14081-0.28575-0.32743-0.34264-2.3111-0.70909-4.6216-1.4235-6.9294-2.1444-0.20969-0.0655-0.34992-0.0344-0.50865 0.1185-0.8857 0.85194-1.782 1.6927-2.6743 2.5373m23.385 6.6404c0.87776-0.83145 1.7522-1.6662 2.6372-2.4891 0.17793-0.16537 0.21892-0.31882 0.16406-0.55496-0.55101-2.3859-1.0927-4.7738-1.6279-7.163-0.0482-0.21826-0.14888-0.3155-0.3585-0.37767-2.3171-0.68925-4.6335-1.3844-6.9466-2.0896-0.24473-0.0749-0.40547-0.0351-0.58804 0.14157-1.7674 1.7079-3.5414 3.4092-5.3194 5.1058-0.162 0.15468-0.18851 0.297-0.13688 0.50535 0.5907 2.376 1.1768 4.7532 1.7529 7.1332 0.0555 0.22753 0.15881 0.33073 0.381 0.39555 2.2933 0.66476 4.5852 1.3361 6.8732 2.0201 0.2421 0.0728 0.39689 0.0515 0.58275-0.129m-16.835-23.061c-0.89232 0.84402-1.782 1.6913-2.6796 2.5301-0.15018 0.14025-0.19646 0.26657-0.14287 0.47361 0.60721 2.3601 1.2085 4.7228 1.7992 7.0875 0.0596 0.23946 0.17531 0.34661 0.40217 0.41606 2.3402 0.71703 4.6792 1.44 7.0148 2.1736 0.22687 0.0709 0.3519-8e-3 0.50072-0.14944 1.7489-1.6821 3.4998-3.3628 5.258-5.0357 0.16875-0.16069 0.2057-0.30494 0.15413-0.52982-0.54573-2.376-1.0835-4.7532-1.6126-7.1325-0.051-0.23019-0.15544-0.33008-0.37837-0.39424-2.3713-0.68195-4.7413-1.3732-7.108-2.071-0.21034-0.0623-0.35123-0.0317-0.50933 0.12038m14.41 26.391c-0.20439 0.19514-0.41936 0.24739-0.68925 0.168-2.4262-0.7157-4.8544-1.4222-7.2787-2.1438-0.27383-0.0814-0.45706-0.045-0.67072 0.15619-1.7429 1.6457-3.5018 3.2756-5.2493 4.9173-0.38629 0.36248-0.77786 0.48221-1.3156 0.31486-2.329-0.72298-4.6692-1.4096-7.0068-2.1048-0.40482-0.12038-0.64294-0.36514-0.74018-0.78317-0.56817-2.4342-1.1357-4.8684-1.733-7.2946-0.11375-0.46038-0.0324-0.75405 0.31616-1.0821 1.7826-1.6774 3.5362-3.3867 5.3095-5.0747 0.19911-0.18984 0.2593-0.3552 0.18851-0.62773-0.63762-2.4686-1.2574-4.9418-1.8944-7.411-0.0774-0.3003-0.029-0.51263 0.19976-0.72629 1.9308-1.7992 3.8563-3.605 5.7778-5.414 0.2712-0.25532 0.55099-0.31815 0.90951-0.21232 2.5426 0.74944 5.0873 1.4903 7.6339 2.2265 0.29237 0.0847 0.45377 0.24011 0.52256 0.54835 0.55034 2.4785 1.1165 4.9537 1.6682 7.4328 0.0476 0.21299 0.15544 0.29303 0.34792 0.35058 2.3859 0.71172 4.7658 1.4393 7.155 2.1372 0.4531 0.13294 0.67668 0.36049 0.77985 0.82814 0.55829 2.5493 1.145 5.0926 1.7291 7.6365 0.0636 0.27649 1e-3 0.47494-0.2097 0.67072-0.96573 0.89893-1.9202 1.8111-2.878 2.7179"/>
   <path d="m108.51 126.28c-0.15206 0.14231-0.19644 0.26855-0.14756 0.47295 0.57415 2.3793 1.1417 4.7605 1.7013 7.1431 0.0524 0.22358 0.14344 0.33405 0.37239 0.39887 2.3257 0.66146 4.6474 1.3322 6.9672 2.0122 0.22556 0.0661 0.36975 0.0265 0.53578-0.13097 1.7264-1.6325 3.4568-3.261 5.1958-4.8809 0.20041-0.18656 0.25929-0.35256 0.19579-0.6264-0.56025-2.4236-1.1079-4.8505-1.6484-7.2794-0.045-0.20107-0.14419-0.27648-0.32809-0.32808-2.2966-0.6522-4.5905-1.3097-6.8845-1.9725-0.18713-0.0542-0.31684-0.0299-0.45905 0.10575-0.90157 0.86387-1.8111 1.7191-2.7179 2.5777m2.3706-3.3179c0.2302-0.22094 0.46965-0.27319 0.77126-0.18656 2.4977 0.71966 4.9973 1.434 7.4963 2.1471 0.23216 0.0655 0.38695 0.18 0.44317 0.43325 0.508 2.292 1.0239 4.5819 1.5366 6.8719 0.084 0.37372 0.16331 0.7481 0.25398 1.1198 0.0727 0.30229 7e-3 0.54704-0.22553 0.76465-1.911 1.7899-3.8186 3.5831-5.7243 5.3783-0.20505 0.19248-0.42862 0.24143-0.69453 0.1647-2.5354-0.73355-5.0714-1.4664-7.6081-2.194-0.35387-0.10188-0.48285-0.36647-0.55894-0.68462-0.41936-1.7641-0.84004-3.5282-1.2594-5.2923-0.18-0.75473-0.34595-1.5128-0.54439-2.2622-0.0974-0.36776-0.015-0.60986 0.2745-0.8718 0.97038-0.87776 1.909-1.7912 2.8602-2.6915"/>
   <path d="m52.392 113.54c0.89296-0.84468 1.78-1.6946 2.6822-2.5294 0.17925-0.16668 0.22489-0.31485 0.168-0.55098-0.54768-2.2834-1.0908-4.5667-1.6146-6.8554-0.0715-0.31287-0.21828-0.44385-0.5113-0.52983-2.3098-0.67997-4.617-1.3692-6.9208-2.0704-0.25929-0.0787-0.422-0.0311-0.6125 0.15018-1.7357 1.6536-3.4779 3.3007-5.2262 4.9404-0.18785 0.17588-0.22755 0.33601-0.16725 0.58141 0.56688 2.3197 1.1238 4.6414 1.6761 6.9645 0.0581 0.24474 0.18393 0.381 0.42333 0.45244 2.3072 0.68859 4.6137 1.3811 6.9182 2.0796 0.18918 0.0569 0.31552 0.0271 0.45705-0.10913m-1.5174 11.39-0.0169-0.0187c0.88504-0.83807 1.7668-1.6794 2.6584-2.5096 0.17531-0.16275 0.22623-0.31222 0.17063-0.55233-0.55099-2.3654-1.0914-4.7327-1.6252-7.1014-0.0462-0.20769-0.14419-0.297-0.34199-0.3552-2.2986-0.68329-4.5958-1.3706-6.8884-2.073-0.2712-0.0833-0.44385-0.0337-0.64163 0.15337-1.7621 1.6689-3.5309 3.3311-5.3036 4.9894-0.14287 0.13293-0.14812 0.25797-0.10912 0.42862 0.55627 2.415 1.1106 4.8306 1.6556 7.2483 0.0481 0.21564 0.14494 0.31752 0.35653 0.37969 2.3111 0.67666 4.6196 1.3606 6.9261 2.0525 0.21431 0.0649 0.35059 0.0239 0.50668-0.12637 0.87907-0.84403 1.7674-1.6788 2.6531-2.5162zm-19.288-20.579c-0.90686 0.85792-1.8124 1.7185-2.7232 2.5731-0.12825 0.12037-0.18854 0.23085-0.14419 0.41938 0.55959 2.3528 1.1073 4.7076 1.6715 7.0591 0.0277 0.11512 0.162 0.25796 0.27649 0.29236 2.4474 0.74876 4.8988 1.481 7.3488 2.2225 0.17531 0.0536 0.29831 0.0244 0.43259-0.1025 1.7648-1.6662 3.5362-3.3258 5.2976-4.996 0.0826-0.0787 0.14344-0.25332 0.1185-0.36049-0.57415-2.4322-1.1589-4.8617-1.7548-7.288-0.0285-0.11562-0.16668-0.25597-0.28243-0.29237-2.3654-0.7395-4.736-1.4638-7.1027-2.2007-0.20374-0.0635-0.33139-0.0231-0.47958 0.11912m30.836 19.788c0.88503-0.8374 1.7648-1.6814 2.6604-2.5076 0.18262-0.16931 0.21761-0.32147 0.16462-0.55297-0.53249-2.3376-1.059-4.6765-1.5756-7.0181-0.0549-0.25002-0.16462-0.36777-0.40945-0.44052-2.3667-0.70049-4.7308-1.4116-7.0928-2.1279-0.21034-0.0641-0.34992-0.0291-0.5093 0.12038-1.782 1.6775-3.5686 3.3503-5.3598 5.0178-0.1515 0.14156-0.19383 0.2712-0.14682 0.47494 0.55497 2.4051 1.1033 4.8114 1.6464 7.2191 0.041 0.18262 0.13031 0.26856 0.30558 0.32016 2.3773 0.70181 4.7526 1.4082 7.1266 2.12 0.18787 0.0563 0.31553 0.0298 0.45775-0.1065m3.2166-1.9672c-0.97366 0.92141-1.9493 1.8388-2.917 2.7656-0.20704 0.19778-0.40878 0.2348-0.68395 0.1515-2.4791-0.74879-4.9629-1.483-7.4427-2.2311-0.21431-0.0641-0.33534 0.0131-0.47557 0.14756-1.7919 1.7118-3.591 3.4164-5.3777 5.1336-0.3175 0.30559-0.62043 0.39224-1.059 0.25862-2.3905-0.72827-4.7876-1.4347-7.1887-2.1292-0.424-0.123-0.62905-0.35852-0.72299-0.78118-0.55098-2.4686-1.1238-4.9325-1.6755-7.4011-0.0596-0.26458-0.17925-0.38034-0.43324-0.45508-2.4256-0.71702-4.8472-1.4506-7.2714-2.1716-0.35918-0.10725-0.58077-0.28774-0.67073-0.6813-0.56025-2.456-1.135-4.9087-1.7218-7.3587-0.0886-0.37106-9e-3 -0.63566 0.26128-0.89097 1.9156-1.8164 3.8259-3.6374 5.7329-5.4623 0.2401-0.22952 0.48351-0.2712 0.79837-0.17269 2.4342 0.75803 4.873 1.5002 7.3071 2.2595 0.23746 0.074 0.38431 0.0277 0.55827-0.13762 1.7231-1.6384 3.4608-3.261 5.1772-4.906 0.43524-0.4174 0.86187-0.51529 1.4459-0.32744 1.563 0.50339 3.1439 0.95119 4.7182 1.4208 0.78183 0.23415 1.5624 0.4736 2.3462 0.70181 0.44517 0.129 0.69917 0.38296 0.80764 0.86186 0.53115 2.3488 1.0987 4.6898 1.6411 7.0366 0.0595 0.25864 0.17137 0.38564 0.42995 0.4617 2.3674 0.69918 4.7294 1.4202 7.0981 2.1154 0.46964 0.13819 0.71504 0.381 0.82154 0.87444 0.52387 2.4328 1.0709 4.8617 1.6358 7.286 0.10575 0.45375 0.0113 0.74611-0.33405 1.057"/>
   <path d="m165.01 123.09c0.89231-0.84468 1.78-1.6946 2.6816-2.5294 0.17925-0.16594 0.22423-0.31485 0.168-0.55099-0.54769-2.2834-1.0908-4.5667-1.614-6.8554-0.0714-0.31288-0.21829-0.44385-0.51131-0.52984-2.3111-0.67931-4.6176-1.3692-6.9215-2.0704-0.2593-0.0788-0.42203-0.0311-0.61253 0.15075-1.7357 1.653-3.478 3.3-5.2255 4.9404-0.18786 0.17588-0.22755 0.33536-0.16725 0.58076 0.56621 2.3198 1.1238 4.6415 1.6761 6.9645 0.0581 0.2454 0.18394 0.38167 0.42266 0.45244 2.3078 0.68858 4.6137 1.3811 6.9182 2.0796 0.18919 0.0569 0.31552 0.0271 0.45772-0.10913m-1.518 11.39-0.0169-0.0179c0.88436-0.83808 1.7661-1.6794 2.6577-2.5096 0.17531-0.16275 0.22687-0.3122 0.17062-0.55231-0.55101-2.3654-1.0914-4.7321-1.6245-7.1008-0.0471-0.20836-0.14494-0.297-0.34264-0.35588-2.2979-0.68328-4.5958-1.3705-6.8884-2.073-0.2712-0.0826-0.44382-0.0337-0.64162 0.15338-1.7621 1.6689-3.5308 3.3311-5.3036 4.9894-0.14287 0.13294-0.14812 0.25797-0.1085 0.42863 0.55629 2.4157 1.1106 4.8306 1.6556 7.2489 0.0481 0.21498 0.14494 0.31684 0.35652 0.37902 2.3105 0.67668 4.619 1.3613 6.9261 2.0532 0.21366 0.0641 0.35058 0.0231 0.50669-0.12699 0.87841-0.84402 1.7668-1.6781 2.6524-2.5162zm-19.287-20.579c-0.90687 0.8579-1.813 1.7185-2.7232 2.5731-0.129 0.12038-0.18916 0.23085-0.14419 0.41937 0.55894 2.3528 1.1066 4.7083 1.6708 7.0591 0.0277 0.11575 0.16275 0.25799 0.27649 0.29303 2.4474 0.74811 4.8994 1.481 7.3488 2.2225 0.17587 0.0529 0.29899 0.0238 0.43326-0.10263 1.7648-1.6669 3.5355-3.3265 5.2976-4.9967 0.0826-0.0787 0.14287-0.25334 0.11775-0.36049-0.57415-2.4322-1.1582-4.8611-1.7548-7.288-0.0285-0.11562-0.16669-0.25597-0.28244-0.29236-2.3654-0.74016-4.736-1.4638-7.1021-2.2007-0.20439-0.0635-0.33204-0.0231-0.48022 0.11913m30.836 19.788c0.88503-0.83739 1.7641-1.6814 2.6604-2.5076 0.18319-0.16931 0.21762-0.32146 0.16537-0.55231-0.53312-2.3383-1.0597-4.6772-1.5756-7.0187-0.0555-0.25004-0.16538-0.36779-0.4101-0.44054-2.3667-0.70047-4.7301-1.4109-7.0922-2.1279-0.21033-0.0641-0.35057-0.029-0.50932 0.12113-1.7826 1.6768-3.5692 3.3496-5.3598 5.0172-0.1515 0.14156-0.19447 0.2712-0.14756 0.47494 0.55496 2.4051 1.1033 4.8114 1.647 7.2191 0.0404 0.18263 0.12957 0.26857 0.3056 0.32017 2.3766 0.7018 4.7519 1.4082 7.1259 2.1206 0.18713 0.0562 0.31553 0.0291 0.4584-0.10712m3.216-1.9665c-0.97367 0.92075-1.9493 1.8389-2.917 2.7649-0.20703 0.19778-0.40811 0.23483-0.68328 0.15149-2.4798-0.74878-4.9636-1.483-7.4427-2.2311-0.21498-0.0641-0.33536 0.0132-0.4756 0.1475-1.7919 1.7118-3.5917 3.4164-5.3783 5.1336-0.31749 0.30558-0.62044 0.3929-1.059 0.25928-2.3905-0.72826-4.7876-1.4354-7.1887-2.1299-0.42399-0.123-0.62839-0.3585-0.72298-0.78118-0.55099-2.4686-1.1238-4.9325-1.6755-7.4004-0.0595-0.26524-0.1785-0.381-0.43323-0.45574-2.4256-0.71704-4.8465-1.4506-7.2708-2.1716-0.35917-0.10713-0.58141-0.28774-0.67137-0.68064-0.56025-2.456-1.135-4.9094-1.7211-7.3594-0.0892-0.37108-9e-3 -0.63499 0.26063-0.89098 1.9162-1.8164 3.8259-3.6374 5.7335-5.4617 0.23944-0.22951 0.48285-0.27118 0.79773-0.17325 2.4342 0.75805 4.873 1.5009 7.3071 2.2596 0.23748 0.0741 0.38498 0.0277 0.55894-0.13763 1.7224-1.6378 3.4608-3.2603 5.1772-4.906 0.43523-0.41738 0.86187-0.51527 1.4453-0.32742 1.5637 0.50337 3.1446 0.95118 4.7182 1.4215 0.7825 0.2335 1.563 0.47294 2.3462 0.70114 0.44516 0.12956 0.69982 0.38298 0.8083 0.86188 0.53115 2.3495 1.0987 4.6904 1.6404 7.0366 0.0602 0.25864 0.17138 0.38564 0.42996 0.46236 2.368 0.69849 4.7294 1.4201 7.0981 2.1153 0.46962 0.13763 0.71568 0.38034 0.82152 0.87379 0.52388 2.4335 1.0702 4.8617 1.6364 7.286 0.10513 0.45378 0.0113 0.7468-0.33405 1.057"/>
  </g>
 </g>
</svg>
