<svg xmlns="http://www.w3.org/2000/svg" viewBox="0 0 360 260">
  <title>kfmIconTitled</title>
  <g id="Layer_2" data-name="Layer 2">
    <g id="Layer_1-2" data-name="Layer 1">
      <g style="opacity: 0.8300000000000001">
        <rect width="360" height="260" style="fill: #fcfcfc"/>
      </g>
      <g>
        <path id="body" d="M206.82,106.73l-2.76-.7q-.7-.17-1.39-.29l-3.36-.77a39.57,39.57,0,0,0-4.19-.91l-4.58-.95-1.47-.25c-1.87-.33-3.75-.58-5.64-.73l-1-.08-2.74-.31h0a27,27,0,0,0-3.94-.64h0c-.19,0-.41,0-.6-.08l-2.16-.35-2.74-.62-3.21-.46-2.13-.31L162,99l-3.5-.31-3.5-.46h0a11.64,11.64,0,0,0-2.51-.44h0a11.17,11.17,0,0,0-2-.35h-.06a10,10,0,0,1-1.45-.37,18.33,18.33,0,0,0-3.81-.68,24,24,0,0,1-2.63-.43l-.29-.06-.06,0a18.51,18.51,0,0,0-3.71-.56h-1.84l-2.28,0-1.76.5-1.26.37-1.47.37-1.31.21-1.41.29h-.85l-.89-.39-.5-1V92.22l.56-1.7,1.24-1,1.58-.73,1.66-.43h4.44l.21-.5.85-.25,1.7-.17,2.55-.35h2.13l3.29.21,1.1,0,4,.35,4.31.39,2.55.21,1.53,0,3.75.08,2,.08,1.41.14,2.65.46,3.21.52,1.87.37,2.09.08,2.24-.15h0a23.93,23.93,0,0,1,3.32-.35l.72,0,2.61-.15,1.87-.06,1.86.12,1.2.12,1.39.06,1.62.06h1.39l2.3.06,2.3.06h1.68l2.11.06,2,0,2.86-.19,2-.19,2.22-.35,2.07-.41a1.11,1.11,0,0,0,.27-.08L215,88l1.24-.54,1.28-.54,1.06-.54,1.24-.56,1.1-.54,1.31-.66,1.53-.79,1.93-1.18,1.86-1.06,1.18-1.26.91-1.33,1-1.37L232,75.89l1.2-1.57,1-1.2.79-.89.83-1,.83-.89.89-.75L239,69l1.35-.29h3.13l1,.44,1.2.44,1.35.68,2,1.53,1.55,2,.43-2.11h0c.21-1.47,1.49-2.72,2.47-3.81l.06-.06,1.33-1.08,0,0a10,10,0,0,1,3.34-1.39h0l2.07-.06h1.2l1.47.15h0a5.5,5.5,0,0,1,2.51,1.29l.08.06,1.16.89.7,1.39.29,1.08.1,1.58V73l-.19,1.1-.39,1.35-1,2.15L265,79.36l-1.57.79-1.68,1-.54.93-.41.87,1.18,1.2,1.62,1.51,1.14,1.1.64,1.16.7,1.55.6,1.2.52,1.28.15,2.09-.15,2-.75,1.8-1.35,2.69-2.16,2.92-1.87,1.49-1.49,2.47-1.43,2.69h0a22.94,22.94,0,0,0-1.41,3.85l0,.15a9.29,9.29,0,0,1-.48,1.35l0,.06a5.34,5.34,0,0,1-1,1.45l0,0a19.87,19.87,0,0,1-2.34,2.07l-.54.41-1.72,1h0a5.29,5.29,0,0,1-3.32.1l-.35-.1-1-.83-.75-1.2-.44-1.35.08-1.64.23-1.72.52-1.43,1-1.57,1.2-1.43,1.2-1.43,1.35-1.72.37-.83-.77.23,0,0a4.73,4.73,0,0,1-1.51.64h0a7.55,7.55,0,0,1-1.84.37h-1.06l-1-.15-1.12-.29h0a4.57,4.57,0,0,0-1.84-.21h0a1.49,1.49,0,0,0-.5.14l-.85.41-.14.06a5.07,5.07,0,0,0-1.2.7h0l-1.57,1.37-.12.14a3.34,3.34,0,0,0-.68,1h0a9.76,9.76,0,0,0-.35,1.06c-.12.44-.23,1-.23,1l0,.06a18.72,18.72,0,0,0-.46,2.92l0,.39.08,2.45.06.46a30.4,30.4,0,0,1,.37,5.45l.08,1.82,0,1.6c0,2,.12,2.36,0,4.77h0l.08,1.39v.12c0,.31,0,.62.06.93a4.91,4.91,0,0,1,0,.75c0,.31,0,.44,0,.87l0,1.2v.58l0,.62c0,.35,0,.87-.08,1.93l-.15,1.47,0,1.37,0,.93,0,1.47c0,.35-.08,1.93-.06,2.42l-.12,1.29c0,.44-.21,2-.29,2.36l-.79,2.4-.58,3.4.12,4.29,0,3.94-.31,3.21-.15,3.5v3.5l-.62,4,.39,3.07,1.58,1.74,1.29,1.08,1.18,1.08,1.72.7,1.93.68,1.37.62,1.37,1.53.75,1.68-.62,1.22-1.37,1.22-1.68.31-2.74-.91-1.84-.62-1.68-1.22-1.84-1.37-2.59-.91-2-.15-1.68-.7a3.73,3.73,0,0,1-1.51-1.16l-.77-1h0c-.7-.56.1-2.61-.06-3.5l.25-3.32.08-.44a13.43,13.43,0,0,0,0-4.31h0s-.21-.79-.35-1.49a15.69,15.69,0,0,0-.48-1.87l0,0a11.92,11.92,0,0,1-.52-2.72l-.12-1.89c0-.33,0-1.1,0-1.41,0-.6.21-1.14.19-1.74v-.35c0-1.1.33-1.24.29-2.13l.27-1.33a20.48,20.48,0,0,1,.33-3.05l.27-1.78c0-.15,0-.7.12-1.31a19.9,19.9,0,0,0,0-4.15h0a25.6,25.6,0,0,0-.48-4.14,22.11,22.11,0,0,1-.33-2.53h0l-.43-2.34h0a14.85,14.85,0,0,1-.12-2.15c0-.33-.1-.64-.12-.95h0a6.1,6.1,0,0,0-.17-1.16,10.26,10.26,0,0,0-.14-2.3,20.47,20.47,0,0,1-.39-3.3l0-2.22c-.06-.25-.08-1.91-.1-2.18l-.27-2v0a23.6,23.6,0,0,0-1.33-5.62,31.67,31.67,0,0,0-2.15-4.35l-.41-.72a11.9,11.9,0,0,0-3.17-3.63h0l-2.43-1.62a37.56,37.56,0,0,0-5.76-1.74m60.47-38c.85.66.85-.12,1.6,1.22a13.18,13.18,0,0,1,1.2,3.25c.93,4-3.77,10.3-3.21,10.51.73.27,5.51-2.4,7.32-7.71.77-2.26,1-3.77-.58-6.84-1.26-2.42-5.08-6-7.4-3.23a6.28,6.28,0,0,0-.29,1.06h0" style="fill: #26c9c3"/>
        <path id="Arms" d="M235.64,71.16C228.58,79.1,221.16,88.81,225,92.81M243.76,80l-.88.56m5-3h0m-23,15.3c2.17,2.77,10.64.24,21.89-9.2m-17.29,4.51c3.27-3,8.3-2.82,13.37-7.61m-7.17,4.39a8.27,8.27,0,0,0,2.1-4.12m9.63,28.51a25.9,25.9,0,0,0,6.34-8m4.42,1.75c-1.83,3.06-5.49,11.88-8,14.24m-1-34.49-.52.1-.49.23-.28.13-.42.11-.37.11-.4.18m5-3.37.16.35.08.41-.15.41-.15.35-.3.29-.52.3-.37.13-.44.17-.79.12m-1.67-5.18,1,.11.93.36,1,.65.55.57.67,1M243.65,80l.58-.5.68-.6.88-.55.76-.39h0a3.56,3.56,0,0,1,1-.39h0m10.65,25.45.3-.71.46-.66.42-.73.43-.77.17-.39.05-.42,0-.4,0-.4-.14-.34-.19-.55-.21-.35-.26-.3-.26-.19-.27-.26-.24-.17-.32-.22-.33-.26-.3-.22-.41-.23-.31-.16-.29-.12-.32,0-.36,0-.36,0-.38.08-.15.1-.19.16-.21.26-.17.24,0,.18-.06.52,0,.39,0,.34,0,.34-.16.35,0,.34,0,.31-.05.43-.07.54,0,.3,0,.43,0,.1a1.35,1.35,0,0,1-.06.84h0" style="fill: none"/>
      </g>
      <text transform="translate(84.76 137.32)" style="font-size: 32.39999771118164px;font-family: Optima-Regular, Optima">K<tspan x="19.8" y="0" style="letter-spacing: -0.011996046372122567em">r</tspan><tspan x="30.2" y="0" style="letter-spacing: -0.029990115930306416em">a</tspan><tspan x="45.42" y="0" style="letter-spacing: -0.000015070410015229356em">v</tspan><tspan x="61.62" y="0" style="letter-spacing: -0.01799406955818385em">F</tspan><tspan x="77.24" y="0">it </tspan><tspan x="0" y="38.88" style="letter-spacing: 0.9219926143217168em">	</tspan><tspan x="38.88" y="38.88">Marin</tspan></text>
    </g>
  </g>
</svg>
