<svg xmlns="http://www.w3.org/2000/svg" viewBox="0 0 360 260">
  <title>mlIconTitled</title>
  <g id="Layer_2" data-name="Layer 2">
    <g id="Layer_1-2" data-name="Layer 1">
      <g style="opacity: 0.8300000000000001">
        <rect width="360" height="260" style="fill: #020200"/>
      </g>
      <path d="M202.08,84.33c-1-1.64-4.86-.87-4.58,1.19C198.88,84.41,202.68,86.44,202.08,84.33Z" style="fill: #60872b"/>
      <path d="M198.26,91.65c-.77,2.59,4.61,2.6,3.88,0C201,91.11,199.16,90.15,198.26,91.65Z" style="fill: #60872b"/>
      <path d="M232.57,155.3c-6.95,1-14.26-.85-21,1.74-.1.91-.17,2,.79,2.47,8.36.58,16.68-1.87,25-.79.62-.49,2.42-.69,2.05-1.68A5.8,5.8,0,0,0,232.57,155.3Z" style="fill: #60872b"/>
      <path d="M292.53,151.47c-6,.55-13.34,2.67-18.33-1.7-8.59-1-17.31.59-25.9-.11-2.25,0-1.78-2.75-2.77-4.1-3.29.61-6.44,1.94-9.89,1.54-7.94.09-15.94,3.26-23.79.78-6.42-2.58-12.88,2.31-19.51,1.23a92,92,0,0,1-20.37,0c-2.94-.27-6.39.29-8.1-2.63-14.33-1.67-28.61,1.62-42.76,2.3-5.43,5.25-13.38,5-20.33,6.43A94.94,94.94,0,0,1,79.71,155c-2.75.51-8.93-2.14-9.19,1.77,5.21,2.28,11.65.75,17.21,1.6a49.37,49.37,0,0,1,8.32.38l1.71,0a82.44,82.44,0,0,1,14.35-.37c3.24-.21,6.49-.09,9.71,0a63.77,63.77,0,0,1,13,.4c1.9.12,3.84.15,5.7.29,7.9-.35,15.82-.17,23.72,0,2.15-.27,4.25-.65,6.38-1,5.33-1.17,11,.21,16.18-1.35.05-1-.74-1.55-1.37-2.14l-.53,0a98.4,98.4,0,0,1-19-.31c-8.8.19-18.21-1.57-26.51,1.72-6.35-1.31-13.94.05-19.58-3.65,9.5-3.23,20.54,2.59,29.31-3.1,2-1.21,3.09,1.75,4.45,2.71,13.26,2.68,26.91-1,40.1,1a30.76,30.76,0,0,0,8.28-.39,46.47,46.47,0,0,1,14.39.08c5.86,1.35,11.15-.83,16.51-2.53,6.22,5.8,15.11,2.54,22.77,2.64,1.68-.36,1.91,1.69,2.74,2.68l34.85.17C295.52,154.7,294,152.39,292.53,151.47Z" style="fill: #60872b"/>
      <path d="M91.24,147.37c-3.36,2.24,1.3,2.82,3.24,3,7.25-1.64,15.26,1.45,22-2.3,1.84-1.2-.89-1.89-1.92-2.35C106.8,146.51,99,146.54,91.24,147.37Z" style="fill: #60872b"/>
      <path d="M279.89,136.74c-9.94-7.37-19.48-15.66-30.93-20.65-.53-3.72,4-3.48,6.32-2.26,5.27,2.31,3.2-3,3.11-5.51,1.85-1.5,4.55.18,6.65-.9-.69-3.39-4.87-4.51-6.73-7.19,2.35-1.74,5.78-.43,8-2.21.94-2.78-2.33-3.82-3.88-5.41-.24-2.31,2.62-3.87,1.91-6.33-1.49-1.19-3.54-.6-5.31-.95a30.63,30.63,0,0,1,.18-5.71c-5.07-1.58-9,1.58-12.12,4.66.27-2.95.68-5.93-.31-8.79-3.16,0-5.53,2.63-8.48,3.28-2.47-.6-4.75-7.47-7.59-4.17-1.67,2-1.93,4.73-3.28,6.89-2.35-.41-4.56-1.47-7-1.35-.63,1.76-.08,7-3.56,5.49-5,.2,1.55,6.85-1.77,8.75-3.67,5.28-9.07-1.43-13.88.1-5.21,2.69-8.12-5-13.06-2.29-3.56,1.61-9.27,4.86-12.37.95-3.46-1.29-7.77-3.44-11.44-1.53-2.26-2.13-4.85-4.09-8.1-2.95-4.53-8.52-12.9-1.42-18.14,2.38-6.26,3.4-12,8.44-19,10.1,4.69-4.79,11.31-7,16.83-10.75.94-.69.51-1.62,0-2.41-7,3.62-16.54,6-20.07,13.47-14,9.34-28.36,18.43-41.27,29.35-2.21,3.44-9.37,4.51-8.68,9.2,4,4.63,11.55,4.71,17,2.87a3,3,0,0,1,2.89-.69l.45-.12c4.9-1.16,10,3.33,14.93.68,4-2,8.12-.83,11.92.93,4.52-.16,9-.13,13.54-.11,3.82-4.14,2-9.93-.82-14a53.66,53.66,0,0,1,6.89,4.06c-.07,3.76-.14,7.54,0,11.32,4.34.5,8-2.11,12-3.2,6.31,1,13.34,5.84,18.75-.18,6.79,2.08,14.61,3.84,21.45.81,6.21-2.76,11.43,3.8,17.78,2.95,5.28-.56,10.48-4.94,15.8-2,7,5.4,14.15-4,20.94.53,4.93,2.56,10.34-.63,15.09-2.09,4.14-1.07,7.19,2.48,11,3.4,6.33,1.26,12.66-.55,19-.95C286.71,141,281.42,138.94,279.89,136.74Zm-162-12.44c.94,1.09,1.94,2.14,2.81,3.28-5.15-2.65-9.84-7.39-16.17-6.19-.08-3.62,4.59-4.8,7.44-4.52,4,.45,9.17-1.52,12.23,1.9C121.69,120.59,114.7,119.4,117.87,124.3ZM131.79,113l-1.66-.05c-3-.08-5.9-.09-8.88-.17-.5-1.88,1.13-2.66,2.75-2.66,3.38-.25,4.67-4.72,7.91-4.61a34.75,34.75,0,0,1,6.45,5.25C140.22,114.65,133.39,112,131.79,113Zm19.59,8.14c-4-2-7.6,4.89-10.91,1.56-1.26-.92-3.42-2-2.06-3.82,1.16-3.54,5.45-2.68,8.24-1.72,2.59.89,6.07.35,7.94,2.78Zm75.68-20.48c-1.29-4.59,4.91-5.61,6.53-8.54,1-2.16-2.83-.46-1.85-2.46,5.6-2.76,12.37-4.05,18.14-1.07,2.2,1.13,2.63-1.56,2.59-3.12,1.93.33,2,3.13,3.62,4.26,1.19,2.45-2.52-.77-3,1.26,1.52,6.66-1.06,15.17-8.79,15.88C237.33,110.16,231.75,105,227.06,100.68Z" style="fill: #60872b"/>
      <text transform="translate(65.75 185.93)" style="opacity: 0.8300000000000001;font-size: 22.399999618530273px;fill: #fcfcf7;font-family: Herculanum, Herculanum">Moliver Landscape</text>
    </g>
  </g>
</svg>
