<svg xmlns="http://www.w3.org/2000/svg" viewBox="0 0 360 260">
  <title>react-emblem</title>
  <g id="Layer_2" data-name="Layer 2">
    <g id="Layer_1-2" data-name="Layer 1">
      <rect width="360" height="260" style="fill: #1d1f21;opacity: 0.9500000000000001"/>
      <g>
        <path d="M108.06,130.46c0-6.5-8.14-12.66-20.62-16.48,2.88-12.72,1.6-22.84-4-26.08a8.77,8.77,0,0,0-4.48-1.12v4.46a4.63,4.63,0,0,1,2.28.52c2.72,1.56,3.9,7.5,3,15.14-.22,1.88-.58,3.86-1,5.88a96.92,96.92,0,0,0-12.7-2.18,97.56,97.56,0,0,0-8.32-10c6.52-6.06,12.64-9.38,16.8-9.38V86.76c-5.5,0-12.7,3.92-20,10.72-7.28-6.76-14.48-10.64-20-10.64V91.3c4.14,0,10.28,3.3,16.8,9.32a94.46,94.46,0,0,0-8.26,10,93.4,93.4,0,0,0-12.72,2.2c-.46-2-.8-3.94-1-5.8-.94-7.64.22-13.58,2.92-15.16a4.45,4.45,0,0,1,2.3-.52V86.86A8.92,8.92,0,0,0,34.46,88c-5.62,3.24-6.88,13.34-4,26C18,117.84,9.94,124,9.94,130.46s8.14,12.66,20.62,16.48c-2.88,12.72-1.6,22.84,4,26.08a8.79,8.79,0,0,0,4.5,1.12c5.5,0,12.7-3.92,20-10.72,7.28,6.76,14.48,10.64,20,10.64a8.92,8.92,0,0,0,4.52-1.12c5.62-3.24,6.88-13.34,4-26,12.4-3.82,20.5-10,20.5-16.46ZM82,117.12c-.74,2.58-1.66,5.24-2.7,7.9-.82-1.6-1.68-3.2-2.62-4.8s-1.9-3.16-2.88-4.68c2.84.42,5.58.94,8.2,1.58Zm-9.16,21.3c-1.56,2.7-3.16,5.26-4.82,7.64-3,.26-6,.4-9,.4s-6-.14-9-.38q-2.49-3.57-4.84-7.6t-4.16-8c1.24-2.68,2.64-5.36,4.14-8s3.16-5.26,4.82-7.64c3-.26,6-.4,9-.4s6,.14,9,.38q2.49,3.57,4.84,7.6t4.16,8c-1.26,2.68-2.64,5.36-4.14,8Zm6.46-2.6c1.08,2.68,2,5.36,2.76,8-2.62.64-5.38,1.18-8.24,1.6,1-1.54,2-3.12,2.88-4.74s1.78-3.22,2.6-4.82ZM59,157.16a82.45,82.45,0,0,1-5.56-6.4c1.8.08,3.64.14,5.5.14s3.74,0,5.56-.14A78.06,78.06,0,0,1,59,157.16ZM44.16,145.38c-2.84-.42-5.58-.94-8.2-1.58.74-2.58,1.66-5.24,2.7-7.9.82,1.6,1.68,3.2,2.62,4.8S43.18,143.86,44.16,145.38Zm14.78-41.62a82.45,82.45,0,0,1,5.56,6.4c-1.8-.08-3.64-.14-5.5-.14s-3.74,0-5.56.14A78.07,78.07,0,0,1,58.94,103.76Zm-14.8,11.78c-1,1.54-2,3.12-2.88,4.74s-1.78,3.2-2.6,4.8c-1.08-2.68-2-5.36-2.76-8,2.62-.62,5.38-1.16,8.24-1.58Zm-18.1,25c-7.08-3-11.66-7-11.66-10.12S19,123.34,26,120.34c1.72-.74,3.6-1.4,5.54-2a96.06,96.06,0,0,0,4.5,12.18,94.7,94.7,0,0,0-4.44,12.12c-2-.62-3.86-1.3-5.6-2ZM36.8,169.16c-2.72-1.56-3.9-7.5-3-15.14.22-1.88.58-3.86,1-5.88a96.92,96.92,0,0,0,12.7,2.18,97.56,97.56,0,0,0,8.32,10c-6.52,6.06-12.64,9.38-16.8,9.38a4.77,4.77,0,0,1-2.26-.54Zm47.44-15.24c.94,7.64-.22,13.58-2.92,15.16a4.45,4.45,0,0,1-2.3.52c-4.14,0-10.28-3.3-16.8-9.32a94.46,94.46,0,0,0,8.26-10,93.39,93.39,0,0,0,12.72-2.2A56,56,0,0,1,84.24,153.92Zm7.7-13.34c-1.72.74-3.6,1.4-5.54,2a96.06,96.06,0,0,0-4.5-12.18,94.7,94.7,0,0,0,4.44-12.12c2,.62,3.86,1.3,5.62,2,7.08,3,11.66,7,11.66,10.12s-4.6,7.12-11.68,10.12Z" style="fill: #61dafb"/>
        <circle cx="58.98" cy="130.46" r="9.14" style="fill: #61dafb"/>
        <path d="M78.9,86.78" style="fill: #61dafb"/>
      </g>
      <text transform="translate(130.81 161.55)" style="font-size: 85px;fill: #61dafb;font-family: Roboto-Regular, Roboto">React</text>
    </g>
  </g>
</svg>
