<svg xmlns="http://www.w3.org/2000/svg" xmlns:xlink="http://www.w3.org/1999/xlink" viewBox="0 0 360.36 260">
  <defs>
    <clipPath id="clip-path">
      <polygon points="257.31 141.48 211.88 110.57 239.08 63.02 290.04 92.65 257.31 141.48" style="fill: none"/>
    </clipPath>
    <linearGradient id="linear-gradient" x1="299.95" y1="47.72" x2="308.79" y2="47.72" gradientTransform="matrix(0.97, -0.23, 0.23, 0.97, -54.47, 123.37)" gradientUnits="userSpaceOnUse">
      <stop offset="0" stop-color="#6cefff" stop-opacity="0.16"/>
      <stop offset="0" stop-color="#6cefff" stop-opacity="0.19"/>
      <stop offset="0.03" stop-color="#6cefff" stop-opacity="0.36"/>
      <stop offset="0.06" stop-color="#6cefff" stop-opacity="0.51"/>
      <stop offset="0.09" stop-color="#6cefff" stop-opacity="0.64"/>
      <stop offset="0.13" stop-color="#6cefff" stop-opacity="0.75"/>
      <stop offset="0.17" stop-color="#6cefff" stop-opacity="0.85"/>
      <stop offset="0.22" stop-color="#6cefff" stop-opacity="0.92"/>
      <stop offset="0.27" stop-color="#6cefff" stop-opacity="0.96"/>
      <stop offset="0.34" stop-color="#6cefff" stop-opacity="0.99"/>
      <stop offset="0.52" stop-color="#6cefff"/>
      <stop offset="0.67" stop-color="#6cefff" stop-opacity="0.99"/>
      <stop offset="0.74" stop-color="#6cefff" stop-opacity="0.96"/>
      <stop offset="0.79" stop-color="#6cefff" stop-opacity="0.92"/>
      <stop offset="0.83" stop-color="#6cefff" stop-opacity="0.85"/>
      <stop offset="0.86" stop-color="#6cefff" stop-opacity="0.75"/>
      <stop offset="0.9" stop-color="#6cefff" stop-opacity="0.64"/>
      <stop offset="0.93" stop-color="#6cefff" stop-opacity="0.51"/>
      <stop offset="0.95" stop-color="#6cefff" stop-opacity="0.36"/>
      <stop offset="0.98" stop-color="#6cefff" stop-opacity="0.19"/>
      <stop offset="1" stop-color="#6cefff" stop-opacity="0"/>
    </linearGradient>
    <linearGradient id="linear-gradient-2" x1="290.67" y1="47.72" x2="299.21" y2="47.72" xlink:href="#linear-gradient"/>
    <radialGradient id="radial-gradient" cx="258.17" cy="47.72" r="2.49" gradientTransform="matrix(0.85, -0.2, 0.23, 0.97, 17.61, 106.62)" gradientUnits="userSpaceOnUse">
      <stop offset="0" stop-color="#6cefff" stop-opacity="0.7"/>
      <stop offset="0.47" stop-color="#6cefff" stop-opacity="0.9"/>
      <stop offset="0.77" stop-color="#6cefff"/>
    </radialGradient>
  </defs>
  <title>transmat_portfolio_plate</title>
  <g id="Layer_2" data-name="Layer 2">
    <g id="Layer_1-2" data-name="Layer 1">
      <rect x="0.36" width="360" height="260" style="fill: #292d38;opacity: 0.9500000000000001"/>
      <text transform="translate(8.45 36.72)" style="font-size: 36px;fill: #03b8ff;font-family: Montserrat-Light, Montserrat">TRANSM<tspan x="155.73" y="0" style="letter-spacing: -0.06599934895833333em">A</tspan><tspan x="179.21" y="0">T</tspan></text>
      <text transform="translate(137.04 246.25)" style="font-size: 15px;fill: #fcfcfc;font-family: Montserrat-Regular, Montserrat">DESTINY 2 <tspan x="83.26" y="0" style="letter-spacing: -0.015006510416666667em">C</tspan><tspan x="93.49" y="0">OM</tspan><tspan x="119.52" y="0" style="letter-spacing: -0.04397786458333333em">P</tspan><tspan x="128.95" y="0">ANION APP</tspan></text>
    </g>
    <g id="Ghost_Save" data-name="Ghost Save">
      <polygon points="322.75 87.82 189.94 117.7 188.96 113.48 321.5 82.45 322.75 87.82" style="fill: #394253"/>
      <g style="clip-path: url(#clip-path)">
        <path d="M291.56,92.07a41.58,41.58,0,0,1-34.18,50.86c-21.84,3.34-42.29-11.17-47.17-32.18s7.1-43,28.2-49.48A41.82,41.82,0,0,1,291.56,92.07Z" style="fill: #3e474e"/>
        <path d="M260,59.84c1.68,7.21-6.59,15.7-18,18.84-11,3-20.79-.05-22.35-6.74s5.66-14.86,16.51-18.39C247.49,49.88,258.37,52.63,260,59.84Z" style="fill: #42464c;stroke: #000202;stroke-miterlimit: 10;stroke-width: 0.5px"/>
        <path d="M257.92,60.47c1.48,6.39-5.82,13.92-16,16.74-9.77,2.72-18.56,0-19.95-6S227.1,58,236.78,54.86C246.82,51.63,256.44,54.09,257.92,60.47Z" style="fill: #292a2d;stroke: #000202;stroke-miterlimit: 10;stroke-width: 0.5px"/>
        <path d="M225.26,107.16c2.54,11,0,20.71-5.51,21.77s-11.72-6.7-14.17-17.24-.2-20.24,5.13-21.68S222.71,96.21,225.26,107.16Z" style="fill: #42464c;stroke: #000202;stroke-miterlimit: 10;stroke-width: 0.5px"/>
        <path d="M224.26,107.39c2.25,9.72,0,18.39-4.88,19.35s-10.44-5.93-12.62-15.32-.17-18,4.58-19.28S222,97.67,224.26,107.39Z" style="fill: #292a2d;stroke: #000202;stroke-miterlimit: 10;stroke-width: 0.5px"/>
        <path d="M295.84,91.24c2.88,12.42-.3,23.54-7,24.81s-14-7.44-16.74-19.37.08-23,6.5-24.7S293,78.82,295.84,91.24Z" style="fill: #42464c;stroke: #000202;stroke-miterlimit: 10;stroke-width: 0.5px"/>
        <path d="M294.63,91.52c2.56,11-.26,20.9-6.19,22.06S276,107,273.54,96.36s.08-20.46,5.8-22S292.07,80.5,294.63,91.52Z" style="fill: #292a2d;stroke: #000202;stroke-miterlimit: 10;stroke-width: 0.5px"/>
        <path d="M277.19,133.66c1.46,6.28-7.26,12.79-19,14.47-11.29,1.62-21.21-1.84-22.56-7.67s6.29-12.16,17.48-14.22C264.73,124.1,275.73,127.38,277.19,133.66Z" style="fill: #42464c;stroke: #000202;stroke-miterlimit: 10;stroke-width: 0.5px"/>
        <path d="M275,134c1.29,5.56-6.41,11.34-16.85,12.86-10.06,1.46-18.94-1.61-20.14-6.81s5.64-10.85,15.62-12.66C264,125.53,273.71,128.46,275,134Z" style="fill: #292a2d;stroke: #000202;stroke-miterlimit: 10;stroke-width: 0.5px"/>
      </g>
      <path d="M269.36,97.32a21.06,21.06,0,0,1-16.5,25.58,21.25,21.25,0,1,1,16.5-25.58Z" style="fill: #5a606c;stroke: #000202;stroke-miterlimit: 10;stroke-width: 0.5px"/>
      <path d="M267.2,97.81a18.74,18.74,0,0,1-14.6,22.74,18.9,18.9,0,1,1,14.6-22.74Z" style="fill: #777b86;stroke: #000202;stroke-miterlimit: 10;stroke-width: 0.5px"/>
      <path d="M265.3,98.1a17.07,17.07,0,1,1-21-12.84A17.07,17.07,0,0,1,265.3,98.1Z" style="fill: #384b59;stroke: #000202;stroke-miterlimit: 10;stroke-width: 0.5px"/>
      <path d="M264.78,98.45a16.51,16.51,0,0,1-12.8,20,16.69,16.69,0,0,1-19.41-12.65,17,17,0,0,1,12-20.13C253.52,83.35,262.64,89.21,264.78,98.45Z" style="fill: #06193a;stroke: #000202;stroke-miterlimit: 10;stroke-width: 0.25px"/>
      <polygon points="247.6 98.06 252.41 101.08 249.47 105.91 250.82 111.76 252.11 111.49 257.5 101.66 257.36 101.05 256.69 98.17 256.37 97.97 247.29 91.92 247.29 91.92 246.28 92.17 247.6 98.06" style="fill: url(#linear-gradient)"/>
      <polygon points="246.88 98.24 243.94 103.03 248.65 106.09 250.01 111.93 248.73 112.2 239.83 105.66 239.69 105.07 239.04 102.29 239.23 101.97 244.45 92.62 244.45 92.62 245.47 92.37 246.88 98.24" style="fill: url(#linear-gradient-2)"/>
      <path d="M250.43,101.53a2.31,2.31,0,1,1-2.79-1.75A2.32,2.32,0,0,1,250.43,101.53Z" style="fill: url(#radial-gradient)"/>
      <polygon points="236.18 122.5 220.04 110.66 224.05 109.75 236.18 122.5" style="fill: #adbfcb;stroke: #010101;stroke-miterlimit: 10;stroke-width: 0.5px"/>
      <polygon points="227.93 89.27 218.97 106.58 223.09 105.62 227.93 89.27" style="fill: #849eaf;stroke: #000202;stroke-miterlimit: 10;stroke-width: 0.5px"/>
      <polygon points="219.18 106.4 210.88 108.34 211.85 112.51 220.16 110.63 219.18 106.4" style="fill: #394253"/>
      <polygon points="222.08 105.72 219.18 106.4 220.16 110.63 223.03 110.01 222.08 105.72" style="fill: #324252"/>
      <polygon points="260.87 80.32 278.54 92.65 273.76 93.77 260.87 80.32" style="fill: #7190a2;stroke: #010101;stroke-miterlimit: 10;stroke-width: 0.5px"/>
      <polygon points="268.86 115.34 279.6 97.22 274.81 98.31 268.86 115.34" style="fill: #a6b8c2;stroke: #010101;stroke-miterlimit: 10;stroke-width: 0.5px"/>
      <polygon points="182.21 111.53 202.84 73.22 227.77 89.17 219.06 106.43 183.04 115.11 182.21 111.53" style="fill: #d4d8db;stroke: #010101;stroke-miterlimit: 10;stroke-width: 0.5px"/>
      <polygon points="333.39 90.01 296.39 133.23 268.86 115.34 279.11 97.33 332.34 85.49 333.39 90.01" style="fill: #5d686c;stroke: #000202;stroke-miterlimit: 10;stroke-width: 0.5px"/>
      <polygon points="184.73 122.39 222.24 145.02 235.45 122.23 220.04 110.66 183.93 118.93 184.73 122.39" style="fill: #5d686c;stroke: #000202;stroke-miterlimit: 10;stroke-width: 0.5px"/>
      <polygon points="330.06 75.67 275.93 50.74 260.76 80.5 278.02 92.62 331.11 80.19 330.06 75.67" style="fill: #d4d8db;stroke: #000202;stroke-miterlimit: 10;stroke-width: 0.5px"/>
      <polygon points="261.47 161.76 254.13 171.37 221.41 144.62 235.45 122.23 255 133.92 261.47 161.76" style="fill: #777f82;stroke: #000202;stroke-miterlimit: 10;stroke-width: 0.5px"/>
      <polygon points="261.47 161.76 274.31 169.44 296.08 133.28 268.86 115.34 255 133.92 261.47 161.76" style="fill: #777f82;stroke: #000202;stroke-miterlimit: 10;stroke-width: 0.5px"/>
      <polygon points="233.19 40.43 221.13 34.91 202.84 73.22 227.77 89.17 239.47 65.86 233.19 40.43" style="fill: #777c7f;stroke: #000202;stroke-miterlimit: 10;stroke-width: 0.5px"/>
      <polygon points="233.15 40.44 240.38 28.09 275.93 50.74 260.76 80.5 239.47 65.86 233.15 40.44" style="fill: #777c7f;stroke: #000202;stroke-miterlimit: 10;stroke-width: 0.5px"/>
      <path d="M182.35,111.53l4,2.74-3.35.81-.8-3.46C182.21,111.54,182.28,111.48,182.35,111.53Z" style="fill: #808487;stroke: #000;stroke-miterlimit: 10;stroke-width: 0.5px"/>
      <polygon points="278.96 97.37 290.86 94.69 289.68 89.89 277.87 92.66 278.96 97.37" style="fill: #394253"/>
      <polygon points="275.69 98.11 278.96 97.37 277.87 92.66 274.61 93.42 275.69 98.11" style="fill: #324252"/>
      <line x1="285.74" y1="96.68" x2="272.57" y2="117.91" style="fill: none"/>
      <path d="M237.88,67.49l-9.95,21.78L239.72,73a2.5,2.5,0,0,1,2.65-.76l18.22,8.15-19-14C239.94,65.43,238.88,65.75,237.88,67.49Z" style="fill: #8196a9;stroke: #010101;stroke-miterlimit: 10;stroke-width: 0.5px"/>
      <path d="M234.59,38.92l5.74-10.5a.48.48,0,0,0-.13-.66l-1.68-1.1a11.48,11.48,0,0,0-1.16-.43l-14.53,5.48s-.74.91-.74.91a.44.44,0,0,0-.08.11l-1,2a.54.54,0,0,0,.21.75l10.2,4.7A2.48,2.48,0,0,0,234.59,38.92Z" style="fill: #704417;stroke: #000202;stroke-miterlimit: 10;stroke-width: 0.5px"/>
      <path d="M223,31.58c-.5.19-1,1.37-.29,1.7L231,37q1.44.8,2.34-.84l4.88-8.44c.51-.93-.65-1.54-.91-1.44" style="fill: #ba8130"/>
      <path d="M259.92,162.35,254,170.82a.48.48,0,0,0,.13.64l1.67,1.4s1.1.68,1.16.68l15.5-1.55s.86-.7.86-.7a.38.38,0,0,0,.09-.09l1.14-1.67a.57.57,0,0,0-.22-.79l-11.12-6.89A2.44,2.44,0,0,0,259.92,162.35Z" style="fill: #704417;stroke: #000202;stroke-miterlimit: 10;stroke-width: 0.5px"/>
      <path d="M272.26,172.07a.9.9,0,0,0,.36-1.58L263.71,165c-1-.71-1.84-.62-2.47.28L256.16,172c-.51.73.64,1.57.91,1.54" style="fill: #9e662e"/>
      <path d="M184.87,122.39l2.42-4.22-3.37.73.8,3.46A.08.08,0,0,0,184.87,122.39Z" style="fill: #808487;stroke: #000;stroke-miterlimit: 10;stroke-width: 0.5px"/>
      <path d="M329.82,75.69l-4.35,5.82,5.65-1.28-1.05-4.51A.14.14,0,0,0,329.82,75.69Z" style="fill: #808487;stroke: #000;stroke-miterlimit: 10;stroke-width: 0.5px"/>
      <path d="M333.17,90.1l-6.48-3.33,5.64-1.32L333.38,90C333.41,90.07,333.27,90.16,333.17,90.1Z" style="fill: #808487;stroke: #000;stroke-miterlimit: 10;stroke-width: 0.5px"/>
      <path d="M257.61,136.62l11.11-21.21-13,15.6a2.47,2.47,0,0,1-2.71.48l-17.44-9.25,18.22,15C255.47,138.37,256.56,138.19,257.61,136.62Z" style="fill: #b2bdc3;stroke: #010101;stroke-miterlimit: 10;stroke-width: 0.5px"/>
    </g>
    <g id="Beam">
      <path d="M255,120.63,78.26,259H.36V96.88l241.3-13.3-.2.06c8.51-3.79,19,1.7,23,12.48s-.51,21.78-9.45,24.4Z" style="fill: #06aff9;stroke: #06aff9;stroke-miterlimit: 10;stroke-width: 0.25px;opacity: 0.31"/>
      <path d="M264,96c4,10.79-.51,21.78-9.45,24.41-8.4,2.46-17.73-3.47-21.27-13.12S233,87.11,241,83.54C249.5,79.75,260,85.24,264,96Z" style="fill: none;stroke: #06aff9;stroke-miterlimit: 10"/>
      <path d="M195.65,122c8.95,24.38,4,47.34-10.23,51.07-13.38,3.51-30.14-11.48-38.14-33.29s-4.92-44.08,7.54-50.08C168.07,83.27,186.71,97.56,195.65,122Z" style="fill: none;stroke: #06aff9;stroke-miterlimit: 10;stroke-width: 0.5px;opacity: 0.26"/>
      <path d="M141.19,142.13c13.46,36.69,4.95,71.64-17.69,77.7-21.28,5.7-47.38-16.53-59.43-49.35S57.55,103.8,77.45,94.35C98.63,84.31,127.72,105.43,141.19,142.13Z" style="fill: none;stroke: #06aff9;stroke-miterlimit: 10;stroke-width: 0.5px;opacity: 0.26"/>
      <path d="M.83,99.64c22,12.88,41.63,39.37,54.43,74.25,11.5,31.34,13.49,61.8,7.67,85.11" style="fill: none;stroke: #06aff9;stroke-miterlimit: 10;stroke-width: 0.5px;opacity: 0.26"/>
      <line x1="235.48" y1="112.94" x2="0.83" y2="214.59" style="fill: none;stroke: #06aff9;stroke-miterlimit: 10;stroke-width: 3px;opacity: 0.26"/>
      <line x1="241.18" y1="83.49" x2="0.83" y2="96.79" style="fill: none;stroke: #06aff9;stroke-miterlimit: 10;opacity: 0.26"/>
      <line x1="254.48" y1="120.54" x2="79.12" y2="259.13" style="fill: none;stroke: #06aff9;stroke-miterlimit: 10;opacity: 0.26"/>
      <line x1="237.38" y1="114.84" x2="0.83" y2="234.54" style="fill: none;stroke: #06aff9;stroke-miterlimit: 10;opacity: 0.26"/>
      <line x1="239.28" y1="116.74" x2="0.83" y2="255.44" style="fill: none;stroke: #06aff9;stroke-miterlimit: 10;stroke-width: 0.75px;opacity: 0.26"/>
      <line x1="233.58" y1="110.09" x2="0.83" y2="196.54" style="fill: none;stroke: #06aff9;stroke-miterlimit: 10;opacity: 0.26"/>
      <line x1="246.88" y1="120.54" x2="61.32" y2="259" style="fill: none;stroke: #06aff9;stroke-miterlimit: 10;stroke-width: 2px;opacity: 0.26"/>
      <line x1="242.13" y1="119.59" x2="30.19" y2="259" style="fill: none;stroke: #06aff9;stroke-miterlimit: 10;opacity: 0.26"/>
      <line x1="233.58" y1="107.24" x2="0.83" y2="173.74" style="fill: none;stroke: #06aff9;stroke-miterlimit: 10;stroke-width: 0.5px;opacity: 0.26"/>
      <line x1="232.63" y1="103.44" x2="0.36" y2="148.56" style="fill: none;stroke: #06aff9;stroke-miterlimit: 10;stroke-width: 2px;opacity: 0.26"/>
      <line x1="231.68" y1="98.69" x2="0.83" y2="130.99" style="fill: none;stroke: #06aff9;stroke-miterlimit: 10;opacity: 0.26"/>
      <line x1="231.68" y1="93.94" x2="0.36" y2="114.36" style="fill: none;stroke: #06aff9;stroke-miterlimit: 10;stroke-width: 0.25px;opacity: 0.26"/>
      <line x1="234.53" y1="89.19" x2="0.36" y2="104.86" style="fill: none;stroke: #06aff9;stroke-miterlimit: 10;stroke-width: 4px;opacity: 0.26"/>
      <path d="M139.18,142.74c13.66,37.24,5,72.7-18,78.85-21.59,5.78-48.08-16.78-60.3-50.08s-6.62-67.66,13.58-77.24C96,84.07,125.51,105.51,139.18,142.74Z" style="fill: none;stroke: #06aff9;stroke-miterlimit: 10;stroke-width: 0.5px;opacity: 0.26"/>
      <path d="M136.69,143.55c13.8,37.6,5.07,73.41-18.12,79.62C96.76,229,70,206.23,57.67,172.6S51,104.28,71.38,94.6C93.07,84.3,122.89,106,136.69,143.55Z" style="fill: none;stroke: #06aff9;stroke-miterlimit: 10;stroke-width: 0.5px;opacity: 0.26"/>
      <path d="M134.84,144.82c13.73,37.4,5,73-18,79.2-21.69,5.81-48.3-16.85-60.58-50.3s-6.65-68,13.64-77.59C91.46,85.9,121.12,107.42,134.84,144.82Z" style="fill: none;stroke: #06aff9;stroke-miterlimit: 10;stroke-width: 0.5px;opacity: 0.26"/>
      <path d="M132.79,145.45c13.93,38,5.13,74.1-18.28,80.36-22,5.9-49-17.09-61.47-51s-6.75-69,13.84-78.72C88.78,85.66,118.87,107.5,132.79,145.45Z" style="fill: none;stroke: #06aff9;stroke-miterlimit: 10;stroke-width: 0.5px;opacity: 0.26"/>
      <path d="M130.26,146.28c14.06,38.32,5.17,74.82-18.47,81.15-22.23,5.95-49.49-17.27-62.07-51.54s-6.82-69.64,14-79.51C85.81,85.89,116.19,108,130.26,146.28Z" style="fill: none;stroke: #06aff9;stroke-miterlimit: 10;stroke-width: 0.5px;opacity: 0.26"/>
      <line x1="54.03" y1="185.14" x2="0.36" y2="205.56" style="fill: none;stroke: #8ff9f6;stroke-miterlimit: 10;stroke-width: 2px"/>
      <line x1="136.68" y1="172.79" x2="84.43" y2="199.39" style="fill: none;stroke: #8ff9f6;stroke-miterlimit: 10"/>
      <line x1="193.65" y1="120.59" x2="100.58" y2="149.99" style="fill: none;stroke: #8ff9f6;stroke-miterlimit: 10;stroke-width: 0.75px"/>
      <line x1="122.43" y1="119.59" x2="57.83" y2="130.99" style="fill: none;stroke: #8ff9f6;stroke-miterlimit: 10"/>
      <polygon points="86.07 142.38 14.46 161.49 13.08 155.95 85.28 139.21 86.07 142.38" style="fill: #5cf3f7;opacity: 0.54"/>
      <polygon points="176.41 102.1 129.93 108.03 129.36 102.36 176.08 98.86 176.41 102.1" style="fill: #5cf3f7;opacity: 0.54"/>
      <polygon points="177.13 163.42 116.28 205.75 113.15 200.99 176.12 161.88 177.13 163.42" style="fill: #5cf3f7;opacity: 0.54"/>
      <path d="M203.84,118.86c8.28,22.56,3,44.05-10.87,47.77-13.09,3.51-29.14-10.16-36.54-30.34s-4-41,8.23-46.8C177.67,83.31,195.56,96.3,203.84,118.86Z" style="fill: none;stroke: #06aff9;stroke-miterlimit: 10;stroke-width: 0.5px;opacity: 0.26"/>
      <path d="M202.73,119.62c8.24,22.44,3,43.82-10.81,47.52-13,3.49-29-10.11-36.35-30.18s-4-40.77,8.19-46.55C176.7,84.27,194.5,97.18,202.73,119.62Z" style="fill: none;stroke: #06aff9;stroke-miterlimit: 10;stroke-width: 0.5px;opacity: 0.26"/>
      <path d="M201.5,120c8.36,22.77,3.08,44.46-11,48.22-13.2,3.53-29.4-10.26-36.88-30.63S149.6,96.22,162,90.36C175.09,84.12,193.15,97.23,201.5,120Z" style="fill: none;stroke: #06aff9;stroke-miterlimit: 10;stroke-width: 0.5px;opacity: 0.26"/>
      <path d="M200,120.5c8.44,23,3.1,44.89-11.08,48.69-13.34,3.57-29.7-10.36-37.24-30.93s-4.09-41.78,8.38-47.7C173.31,84.26,191.54,97.5,200,120.5Z" style="fill: none;stroke: #06aff9;stroke-miterlimit: 10;stroke-width: 0.5px;opacity: 0.26"/>
      <path d="M39.14,259.11C24.84,252.33,11,238.59.35,220.54" style="fill: none;stroke: #06aff9;stroke-miterlimit: 10;stroke-width: 0.5px;opacity: 0.26"/>
      <path d="M.83,103.44a23.57,23.57,0,0,1,6.51-4.31C34.93,86,72.84,113.57,90.39,161.38c15.72,42.85,8.45,83.88-14.46,97.62" style="fill: none;stroke: #06aff9;stroke-miterlimit: 10;stroke-width: 0.5px;opacity: 0.26"/>
      <path d="M31.55,259.1C20.2,252.69,9.27,242,.21,228.46" style="fill: none;stroke: #06aff9;stroke-miterlimit: 10;stroke-width: 0.5px;opacity: 0.26"/>
      <path d="M.83,100.59c1.17-.75,1.23-.44,2.49-1,27.86-13.22,66.15,14.58,83.87,62.87,15.23,41.49,9.1,81.28-11.82,96.72" style="fill: none;stroke: #06aff9;stroke-miterlimit: 10;stroke-width: 0.5px;opacity: 0.26"/>
      <polygon points="170.34 141.65 101.72 169.64 99.66 164.33 169.16 138.61 170.34 141.65" style="fill: #fcfcfc;opacity: 0.78"/>
      <line x1="103.3" y1="112.4" x2="6.63" y2="125.87" style="fill: none;stroke: #f9f9f9;stroke-miterlimit: 10"/>
      <line x1="231.54" y1="119.97" x2="144.39" y2="163.9" style="fill: none;stroke: #f9f9f9;stroke-miterlimit: 10;stroke-width: 0.5px"/>
    </g>
  </g>
</svg>
