<svg xmlns="http://www.w3.org/2000/svg" xmlns:xlink="http://www.w3.org/1999/xlink" viewBox="0 0 360 260.05">
  <defs>
    <clipPath id="clip-path">
      <polygon points="282.91 139.65 231.24 106.18 249.03 47.33 308.94 77.78 282.91 139.65" style="fill: none"/>
    </clipPath>
  </defs>
  <title>transmatIconTitled_1</title>
  <g id="Layer_2" data-name="Layer 2">
    <g id="Layer_1-2" data-name="Layer 1">
      <rect width="360" height="260" style="fill: #292d38;opacity: 0.9500000000000001"/>
      <text transform="translate(14.09 35.72)" style="font-size: 30px;fill: #03b8ff;font-family: Orbitron-Bold, Orbitron;font-weight: 700">TRANSMAT</text>
      <text transform="translate(139.68 246.25)" style="font-size: 15px;fill: #fcfcfc;font-family: BradleyHandITCTT-Bold, Bradley Hand;font-weight: 700">A DESTINY COMPANION APP</text>
    </g>
    <g id="Layer_2-2" data-name="Layer 2">
      <polygon points="345.71 67.52 211.79 115.44 209.74 109.85 342.77 59.5 345.71 67.52" style="fill: #1a1c1c"/>
      <g style="clip-path: url(#clip-path)">
        <path d="M310.43,76.84c10.94,29.82-2.62,59-27.25,64.47-21.79,4.86-44.81-11-53.58-34.85s-1.44-50.83,18.33-61.21C270.26,33.53,299.48,47,310.43,76.84Z" style="fill: #323333"/>
      </g>
      <path d="M283.17,86.45c4.33,11.8-.57,23.82-10.36,26.66-9.18,2.67-19.34-3.82-23.2-14.33s-.3-22,8.42-25.95C267.33,68.66,278.84,74.64,283.17,86.45Z" style="fill: #3e4242;stroke: #0bafaf;stroke-miterlimit: 10;stroke-width: 2px"/>
      <polygon points="263.72 85.84 271.71 90.36 268.63 99.03 272.24 108.87 274.1 108.3 279.67 90.68 279.28 89.63 277.46 84.66 276.9 84.35 261.57 75.3 261.57 75.3 260.15 75.92 263.72 85.84" style="fill: #05f6fc;stroke: #0bafaf;stroke-miterlimit: 10;stroke-width: 0.5px"/>
      <polygon points="262.71 86.24 259.78 94.76 267.48 99.43 271.08 109.23 269.26 109.78 254.67 99.63 254.31 98.66 252.64 94.1 252.81 93.55 257.64 77.01 257.64 77.01 259.03 76.41 262.71 86.24" style="fill: #05f6fc;stroke: #0bafaf;stroke-miterlimit: 10;stroke-width: 0.5px"/>
      <path d="M268.87,91.41c.78,2.13,0,4.37-1.81,5s-3.77-.58-4.54-2.66,0-4.31,1.74-5S268.08,89.28,268.87,91.41Z" style="fill: #05f6fc;stroke: #0bafaf;stroke-miterlimit: 10;stroke-width: 0.5px"/>
      <path d="M282.49,86.7c4.17,11.35-.53,22.93-9.95,25.68-8.85,2.59-18.66-3.65-22.39-13.8s-.28-21.27,8.14-25C267.25,69.57,278.32,75.34,282.49,86.7Z" style="fill: none;stroke: #0fb5b1;stroke-miterlimit: 10;stroke-width: 2px"/>
      <path d="M293.8,170.26" style="fill: none;stroke: #000505;stroke-miterlimit: 10"/>
      <path d="M265.48,92.59" style="fill: none;stroke: #000505;stroke-miterlimit: 10"/>
      <path d="M218.18,65.23" style="fill: none;stroke: #000505;stroke-miterlimit: 10"/>
      <path d="M265.44,92.6" style="fill: none;stroke: #000505;stroke-miterlimit: 10"/>
      <path d="M236.84,15" style="fill: none;stroke: #000505;stroke-miterlimit: 10"/>
      <path d="M265.48,92.59" style="fill: none;stroke: #000505;stroke-miterlimit: 10"/>
    </g>
    <g id="GrayPlates">
      <polygon points="279 130 290.61 112.31 281 126 257 117.5 279 130" style="fill: #7f7f7f;stroke: #000;stroke-miterlimit: 10;stroke-width: 0.25px"/>
      <polygon points="257.5 118.5 233.2 107.57 238.02 106.27 257.5 118.5" style="fill: #7f7f7f;stroke: #000;stroke-miterlimit: 10;stroke-width: 0.25px"/>
      <polygon points="243.5 80 231.38 102.63 236.65 100.75 243.5 80" style="fill: #7f7f7f;stroke: #000;stroke-miterlimit: 10;stroke-width: 0.25px"/>
      <polygon points="232.04 102.38 229.44 103.36 231.26 108.33 233.87 107.39 232.04 102.38" style="fill: #1a1c1c"/>
      <polygon points="236.68 100.67 231.48 102.61 233.28 107.52 238.5 105.63 236.68 100.67" style="fill: #1a1c1c;opacity: 0.5"/>
      <polygon points="276.12 60.86 305.19 74.82 300.03 76.76 276.12 60.86" style="fill: #666;stroke: #000;stroke-miterlimit: 10;stroke-width: 0.25px"/>
      <polygon points="294.24 110.25 307.41 80.88 302.22 82.74 294.24 110.25" style="fill: #666;stroke: #000;stroke-miterlimit: 10;stroke-width: 0.25px"/>
      <polygon points="205.4 105.86 224.65 69 243.5 79.5 232.33 102.17 208.77 111.04 205.4 105.86" style="fill: #9e9e9e;stroke: #000505;stroke-miterlimit: 10;stroke-width: 0.5px"/>
      <polygon points="353.29 73.89 318.44 123.98 288.5 105.5 297.5 84.5 347.49 66.56 353.29 73.89" style="fill: #8c8c8c;stroke: #000505;stroke-miterlimit: 10;stroke-width: 0.5px"/>
      <polygon points="211.09 121.14 249.65 137.66 256.5 117.5 233.86 107.36 210.41 115.78 211.09 121.14" style="fill: #9e9e9e;stroke: #000505;stroke-miterlimit: 10;stroke-width: 0.5px"/>
      <polygon points="344.74 50.6 285.17 35.3 274.5 68.5 295.5 77.5 343.59 60.23 344.74 50.6" style="fill: #afafaf;stroke: #000505;stroke-miterlimit: 10;stroke-width: 0.5px"/>
      <polygon points="353.3 73.39 352.61 64.77 345.41 67.2 353.3 73.39" style="fill: #d3d3d3;stroke: #000505;stroke-miterlimit: 10;stroke-width: 0.5px"/>
      <polygon points="293.8 170.26 290.81 176.63 249.65 137.66 256.5 117.5 278.5 128.5 293.8 170.26" style="fill: #757575;stroke: #000505;stroke-miterlimit: 10;stroke-width: 0.5px"/>
      <polygon points="290.98 176.61 300.92 175.34 293.73 170.23 290.98 176.61" style="fill: #9e8416;stroke: #000505;stroke-miterlimit: 10;stroke-width: 0.5px"/>
      <polygon points="293.8 170.26 301.13 175.32 318.44 123.98 288.5 105.5 276.5 127.5 293.8 170.26" style="fill: #afafaf;stroke: #000505;stroke-miterlimit: 10;stroke-width: 0.5px"/>
      <polygon points="237.19 15.99 230.75 13 224.54 69.38 243.5 79.5 249.5 56.5 237.19 15.99" style="fill: #757575;stroke: #000505;stroke-miterlimit: 10;stroke-width: 0.5px"/>
      <polygon points="237.19 15.99 239.5 7.39 285.39 35.4 274.5 68.5 249.5 56.5 237.19 15.99" style="fill: #afafaf;stroke: #000505;stroke-miterlimit: 10;stroke-width: 0.5px"/>
      <polygon points="230.92 12.96 239.31 7.49 237.14 16.04 230.92 12.96" style="fill: #9e8416;stroke: #000505;stroke-miterlimit: 10;stroke-width: 0.5px"/>
      <polygon points="344.78 51.07 350.07 57.84 343.59 60.23 344.78 51.07" style="fill: #d3d3d3;stroke: #000505;stroke-miterlimit: 10;stroke-width: 0.5px"/>
      <polygon points="306.42 81.23 310.38 79.81 308.12 73.64 304.18 75.12 306.42 81.23" style="fill: #1a1c1c"/>
      <polygon points="297.3 84.5 307.06 80.98 305 74 295.5 77.5 297.3 84.5" style="fill: #1a1c1c"/>
      <line x1="305.02" y1="82.41" x2="294.7" y2="109.67" style="fill: none"/>
    </g>
    <g id="Beam">
      <path d="M269,113.6,83,259.25H1V88.6l254-14-.2.06c9-4,20,1.79,24.19,13.14s-.53,22.93-9.95,25.68Z" style="fill: #06aff9;stroke: #06aff9;stroke-miterlimit: 10;stroke-width: 0.25px;opacity: 0.31"/>
      <path d="M278.49,87.7c4.17,11.35-.53,22.93-9.95,25.68-8.85,2.59-18.66-3.65-22.39-13.8s-.28-21.27,8.14-25C263.25,70.57,274.32,76.34,278.49,87.7Z" style="fill: none;stroke: #06aff9;stroke-miterlimit: 10"/>
      <path d="M206.58,115c9.42,25.67,4.2,49.84-10.78,53.76-14.08,3.69-31.72-12.09-40.15-35S150.47,87.3,163.59,81C177.54,74.27,197.16,89.32,206.58,115Z" style="fill: none;stroke: #06aff9;stroke-miterlimit: 10;stroke-width: 0.5px;opacity: 0.26"/>
      <path d="M149.24,136.22c14.18,38.63,5.21,75.41-18.61,81.79-22.4,6-49.88-17.4-62.56-51.95S61.2,95.88,82.16,85.94C104.44,75.36,135.07,97.6,149.24,136.22Z" style="fill: none;stroke: #06aff9;stroke-miterlimit: 10;stroke-width: 0.5px;opacity: 0.26"/>
      <path d="M1.5,91.5c23.13,13.56,43.82,41.45,57.3,78.16,12.11,33,14.2,65,8.07,89.59" style="fill: none;stroke: #06aff9;stroke-miterlimit: 10;stroke-width: 0.5px;opacity: 0.26"/>
      <line x1="248.5" y1="105.5" x2="1.5" y2="212.5" style="fill: none;stroke: #06aff9;stroke-miterlimit: 10;stroke-width: 3px;opacity: 0.26"/>
      <line x1="254.5" y1="74.5" x2="1.5" y2="88.5" style="fill: none;stroke: #06aff9;stroke-miterlimit: 10;opacity: 0.26"/>
      <line x1="268.5" y1="113.5" x2="83.91" y2="259.39" style="fill: none;stroke: #06aff9;stroke-miterlimit: 10;opacity: 0.26"/>
      <line x1="250.5" y1="107.5" x2="1.5" y2="233.5" style="fill: none;stroke: #06aff9;stroke-miterlimit: 10;opacity: 0.26"/>
      <line x1="252.5" y1="109.5" x2="1.5" y2="255.5" style="fill: none;stroke: #06aff9;stroke-miterlimit: 10;stroke-width: 0.75px;opacity: 0.26"/>
      <line x1="246.5" y1="102.5" x2="1.5" y2="193.5" style="fill: none;stroke: #06aff9;stroke-miterlimit: 10;opacity: 0.26"/>
      <line x1="260.5" y1="113.5" x2="65.18" y2="259.25" style="fill: none;stroke: #06aff9;stroke-miterlimit: 10;stroke-width: 2px;opacity: 0.26"/>
      <line x1="255.5" y1="112.5" x2="32.4" y2="259.25" style="fill: none;stroke: #06aff9;stroke-miterlimit: 10;opacity: 0.26"/>
      <line x1="246.5" y1="99.5" x2="1.5" y2="169.5" style="fill: none;stroke: #06aff9;stroke-miterlimit: 10;stroke-width: 0.5px;opacity: 0.26"/>
      <line x1="245.5" y1="95.5" x2="1" y2="143" style="fill: none;stroke: #06aff9;stroke-miterlimit: 10;stroke-width: 2px;opacity: 0.26"/>
      <line x1="244.5" y1="90.5" x2="1.5" y2="124.5" style="fill: none;stroke: #06aff9;stroke-miterlimit: 10;opacity: 0.26"/>
      <line x1="244.5" y1="85.5" x2="1" y2="107" style="fill: none;stroke: #06aff9;stroke-miterlimit: 10;stroke-width: 0.25px;opacity: 0.26"/>
      <line x1="247.5" y1="80.5" x2="1" y2="97" style="fill: none;stroke: #06aff9;stroke-miterlimit: 10;stroke-width: 4px;opacity: 0.26"/>
      <path d="M147.13,136.87c14.38,39.19,5.29,76.52-18.89,83-22.73,6.09-50.62-17.66-63.48-52.71s-7-71.22,14.29-81.31C101.67,75.12,132.74,97.68,147.13,136.87Z" style="fill: none;stroke: #06aff9;stroke-miterlimit: 10;stroke-width: 0.5px;opacity: 0.26"/>
      <path d="M144.51,137.72C159,177.3,149.85,215,125.43,221.54c-23,6.15-51.12-17.83-64.11-53.23s-7-71.92,14.44-82.11C98.6,75.36,130,98.14,144.51,137.72Z" style="fill: none;stroke: #06aff9;stroke-miterlimit: 10;stroke-width: 0.5px;opacity: 0.26"/>
      <path d="M142.56,139.06c14.45,39.37,5.31,76.86-19,83.37-22.83,6.11-50.84-17.74-63.76-52.95s-7-71.54,14.36-81.67C96.9,77,128.12,99.7,142.56,139.06Z" style="fill: none;stroke: #06aff9;stroke-miterlimit: 10;stroke-width: 0.5px;opacity: 0.26"/>
      <path d="M140.41,139.73c14.66,39.95,5.39,78-19.25,84.59-23.17,6.2-51.59-18-64.7-53.73S49.36,98,71,87.72C94.08,76.78,125.75,99.78,140.41,139.73Z" style="fill: none;stroke: #06aff9;stroke-miterlimit: 10;stroke-width: 0.5px;opacity: 0.26"/>
      <path d="M137.74,140.59c14.81,40.34,5.44,78.77-19.44,85.43C94.9,232.28,66.2,207.84,53,171.76S45.79,98.46,67.67,88.07C90.95,77,122.93,100.25,137.74,140.59Z" style="fill: none;stroke: #06aff9;stroke-miterlimit: 10;stroke-width: 0.5px;opacity: 0.26"/>
      <line x1="57.5" y1="181.5" x2="1" y2="203" style="fill: none;stroke: #8ff9f6;stroke-miterlimit: 10;stroke-width: 2px"/>
      <line x1="144.5" y1="168.5" x2="89.5" y2="196.5" style="fill: none;stroke: #8ff9f6;stroke-miterlimit: 10"/>
      <line x1="204.47" y1="113.55" x2="106.5" y2="144.5" style="fill: none;stroke: #8ff9f6;stroke-miterlimit: 10;stroke-width: 0.75px"/>
      <line x1="129.5" y1="112.5" x2="61.5" y2="124.5" style="fill: none;stroke: #8ff9f6;stroke-miterlimit: 10"/>
      <polygon points="91.22 136.49 15.85 156.6 14.4 150.78 90.39 133.16 91.22 136.49" style="fill: #5cf3f7;opacity: 0.54"/>
      <polygon points="186.32 94.09 137.39 100.33 136.79 94.36 185.97 90.68 186.32 94.09" style="fill: #5cf3f7;opacity: 0.54"/>
      <polygon points="187.08 158.63 123.03 203.2 119.73 198.18 186.01 157.01 187.08 158.63" style="fill: #5cf3f7;opacity: 0.54"/>
      <path d="M215.19,111.73c8.72,23.75,3.21,46.37-11.44,50.29-13.77,3.69-30.67-10.7-38.46-31.94s-4.22-43.15,8.66-49.27C187.65,74.32,206.48,88,215.19,111.73Z" style="fill: none;stroke: #06aff9;stroke-miterlimit: 10;stroke-width: 0.5px;opacity: 0.26"/>
      <path d="M214,112.54c8.67,23.62,3.19,46.12-11.38,50-13.7,3.67-30.5-10.64-38.26-31.77s-4.2-42.92,8.62-49C186.63,75.32,205.36,88.92,214,112.54Z" style="fill: none;stroke: #06aff9;stroke-miterlimit: 10;stroke-width: 0.5px;opacity: 0.26"/>
      <path d="M212.73,112.94c8.8,24,3.23,46.8-11.55,50.76-13.9,3.72-31-10.8-38.82-32.24s-4.26-43.55,8.74-49.72C184.93,75.17,203.94,89,212.73,112.94Z" style="fill: none;stroke: #06aff9;stroke-miterlimit: 10;stroke-width: 0.5px;opacity: 0.26"/>
      <path d="M211.13,113.46c8.88,24.21,3.27,47.26-11.66,51.26-14,3.76-31.26-10.91-39.2-32.55s-4.3-44,8.83-50.21C183.06,75.32,202.25,89.25,211.13,113.46Z" style="fill: none;stroke: #06aff9;stroke-miterlimit: 10;stroke-width: 0.5px;opacity: 0.26"/>
      <path d="M41.82,259.37c-15.05-7.14-29.67-21.6-40.82-40.6" style="fill: none;stroke: #06aff9;stroke-miterlimit: 10;stroke-width: 0.5px;opacity: 0.26"/>
      <path d="M1.5,95.5A24.68,24.68,0,0,1,8.35,91c29-13.78,68.95,15.19,87.42,65.53,16.55,45.11,8.89,88.29-15.22,102.76" style="fill: none;stroke: #06aff9;stroke-miterlimit: 10;stroke-width: 0.5px;opacity: 0.26"/>
      <path d="M33.83,259.35c-11.95-6.74-23.45-18-33-32.24" style="fill: none;stroke: #06aff9;stroke-miterlimit: 10;stroke-width: 0.5px;opacity: 0.26"/>
      <path d="M1.5,92.5c1.24-.78,1.29-.46,2.62-1.09,29.33-13.92,69.63,15.34,88.28,66.17,16,43.67,9.58,85.56-12.44,101.81" style="fill: none;stroke: #06aff9;stroke-miterlimit: 10;stroke-width: 0.5px;opacity: 0.26"/>
      <polygon points="179.94 135.72 107.7 165.19 105.53 159.6 178.69 132.52 179.94 135.72" style="fill: #fcfcfc;opacity: 0.78"/>
      <line x1="109.36" y1="104.94" x2="7.61" y2="119.12" style="fill: none;stroke: #f9f9f9;stroke-miterlimit: 10"/>
      <line x1="244.35" y1="112.91" x2="152.61" y2="159.15" style="fill: none;stroke: #f9f9f9;stroke-miterlimit: 10;stroke-width: 0.5px"/>
    </g>
  </g>
</svg>
